<?xml version="1.0" standalone="no"?>
<!DOCTYPE svg PUBLIC "-//W3C//DTD SVG 1.1//EN" "http://www.w3.org/Graphics/SVG/1.1/DTD/svg11.dtd">
<svg xmlns="http://www.w3.org/2000/svg">
<metadata>Copyright (C) 2015 by original authors @ fontello.com</metadata>
<defs>
<font id="material-icons" horiz-adv-x="1000" >
<font-face font-family="material-icons" font-weight="400" font-stretch="normal" units-per-em="1000" ascent="850" descent="-150" />
<missing-glyph horiz-adv-x="1000" />
<glyph glyph-name="glyph" unicode="&#xe800;" d="m250 413c-46 0-83-38-83-84s37-83 83-83 83 37 83 83-37 84-83 84z m500 0c-46 0-83-38-83-84s37-83 83-83 83 37 83 83-37 84-83 84z m-250 0c-46 0-83-38-83-84s37-83 83-83 83 37 83 83-37 84-83 84z" horiz-adv-x="1000" />
<glyph glyph-name="glyph-1" unicode="&#xe801;" d="m735 565c-60 60-143 98-235 98-184 0-333-150-333-334s149-333 333-333c155 0 285 106 322 250h-87c-34-97-126-167-235-167-138 0-250 112-250 250s112 250 250 250c69 0 131-29 176-74l-134-134h291v292l-98-98z" horiz-adv-x="1000" />
<glyph glyph-name="glyph-2" unicode="&#xe802;" d="m313-66c-136 64-234 197-248 354h-63c21-257 236-459 498-459 9 0 18 1 28 2l-159 159-56-56z m37 272c-8 0-15 1-22 3-6 3-12 6-16 10s-8 10-11 15c-2 6-4 13-4 20h-54c0-15 3-28 9-40s13-21 23-28c10-8 21-13 34-17 13-5 26-6 41-6 15 0 29 2 43 6s25 10 34 18 18 18 23 30c6 12 9 26 9 41 0 8-1 16-3 23-2 8-6 15-10 22-4 6-10 12-17 17-6 6-15 10-25 14 9 3 16 8 22 13s12 12 16 18c4 6 7 12 9 19s3 13 3 20c0 15-2 28-7 40s-12 21-22 28c-9 8-20 14-32 18-14 4-28 6-43 6-15 0-29-2-42-7s-24-10-33-18c-9-8-16-18-21-28s-8-23-8-36h54c0 7 2 13 4 19 3 6 6 10 10 14 5 4 10 7 16 9s13 4 20 4c17 0 29-5 37-13s12-21 12-36c0-8-1-15-3-21s-6-11-10-15c-5-5-11-8-17-10-7-3-15-4-25-4h-32v-43h32c10 0 18-1 25-3s14-5 19-10c5-4 9-10 12-16 3-7 4-15 4-24 0-17-5-30-14-39-10-9-23-13-40-13z m357 247c-13 14-29 24-47 32-19 7-39 11-61 11h-99v-333h96c23 0 44 3 63 11s35 18 48 32c13 13 24 30 31 49 7 20 11 42 11 66v16c0 25-4 46-11 66s-18 36-31 50z m-17-132c0-18-1-33-6-47-4-14-9-26-17-35s-18-17-30-22c-12-5-25-8-41-8h-38v240h41c30 0 52-9 68-28 16-19 24-47 24-83v-17z m-190 508c-9 0-18-1-27-1l158-159 56 55c136-64 234-196 248-353h63c-21 257-236 458-498 458z" horiz-adv-x="1000" />
<glyph glyph-name="glyph-4" unicode="&#xe803;" d="m167 413v-292h125v292h-125z m250 0v-292h125v292h-125z m-334-501h792v126h-792v-126z m584 501v-292h125v292h-125z m-188 375l-396-209v-83h792v83l-396 209z" horiz-adv-x="1000" />
<glyph glyph-name="glyph-3" unicode="&#xe804;" d="m500 746c46 0 83-37 83-83s-37-84-83-84-83 38-83 84 37 83 83 83z m375-292h-250v-542h-83v251h-84v-251h-83v542h-250v84h750v-84z" horiz-adv-x="1000" />
<glyph glyph-name="glyph-5" unicode="&#xe805;" d="m875 79v-41c0-47-37-84-83-84h-584c-46 0-83 37-83 84v583c0 46 37 83 83 83h584c46 0 83-37 83-83v-42h-375c-46 0-83-37-83-83v-333c0-46 37-84 83-84h375z m-375 84h417v333h-417v-333z m167 104c-35 0-63 28-63 62s28 63 63 63 62-28 62-63-28-62-62-62z" horiz-adv-x="1000" />
<glyph glyph-name="glyph-6" unicode="&#xe806;" d="m125 621v-583c0-47 37-84 83-84h584c46 0 83 37 83 84v583c0 46-37 83-83 83h-584c-46 0-83-37-83-83z m500-167c0-69-56-125-125-125s-125 56-125 125c0 69 56 125 125 125s125-56 125-125z m-375-333c0 83 167 129 250 129s250-46 250-129v-42h-500v42z" horiz-adv-x="1000" />
<glyph glyph-name="glyph-7" unicode="&#xe807;" d="m458 454h84v125h125v84h-125v125h-84v-125h-125v-84h125v-125z m-166-375c-46 0-83-37-83-83s37-84 83-84 83 38 83 84-37 83-83 83z m416 0c-46 0-83-37-83-83s37-84 83-84 84 38 84 84-38 83-84 83z m-409 136c0 2 0 3 1 5l38 68h310c31 0 59 17 73 42l161 293-73 40h0l-46-84-115-208h-292l-6 11-133 281-39 83h-136v-83h83l150-316-56-103c-7-12-11-25-11-40 0-46 38-83 84-83h500v83h-483c-5 0-10 5-10 11z" horiz-adv-x="1000" />
<glyph glyph-name="glyph-8" unicode="&#xe808;" d="m500 746c-230 0-417-187-417-417s187-417 417-417 417 187 417 417-187 417-417 417z m0-125c69 0 125-56 125-125 0-69-56-125-125-125s-125 56-125 125c0 69 56 125 125 125z m0-592c-104 0-196 54-250 134 1 83 167 129 250 129s249-46 250-129c-54-80-146-134-250-134z" horiz-adv-x="1000" />
<glyph glyph-name="glyph-9" unicode="&#xe809;" d="m688 329c57 0 103 47 103 104s-46 105-103 105c-58 0-105-47-105-105s47-104 105-104z m-313 42c69 0 125 56 125 125s-56 125-125 125c-69 0-125-56-125-125s56-125 125-125z m313-125c-77 0-230-38-230-115v-93h459v93c0 77-153 115-229 115z m-313 42c-97 0-292-49-292-146v-104h292v93c0 36 14 98 99 145-36 8-72 12-99 12z" horiz-adv-x="1000" />
<glyph glyph-name="glyph-10" unicode="&#xe80a;" d="m917 591l-192 161-53-64 191-161 54 64z m-589 97l-53 64-192-161 54-64 191 161z m193-192h-63v-250l198-119 32 51-167 99v219z m-21 167c-207 0-375-168-375-375s168-376 375-376 375 168 375 376-168 375-375 375z m0-667c-161 0-292 131-292 292s131 291 292 291 292-130 292-291-131-292-292-292z" horiz-adv-x="1000" />
<glyph glyph-name="glyph-11" unicode="&#xe80b;" d="m328 688l-53 64-192-161 54-64 191 161z m589-97l-192 161-53-64 191-161 54 64z m-417 72c-207 0-375-168-375-375s168-376 375-376 375 168 375 376-168 375-375 375z m0-667c-161 0-292 131-292 292s131 291 292 291 292-130 292-291-131-292-292-292z m42 458h-84v-125h-125v-83h125v-125h84v125h125v83h-125v125z" horiz-adv-x="1000" />
<glyph glyph-name="glyph-12" unicode="&#xe80c;" d="m500 579c161 0 292-130 292-291 0-36-7-69-18-100l63-64c24 50 38 105 38 164 0 207-168 375-375 375-59 0-114-14-163-38l63-64c31 12 65 18 100 18z m417 12l-192 161-53-64 191-161 54 64z m-795 143l-53-53 55-56-46-38 59-60 46 39 34-33c-57-66-92-152-92-245 0-208 168-376 375-376 94 0 179 35 245 92l92-92 53 54-768 768z m564-671c-50-42-115-67-186-67-161 0-292 131-292 292 0 70 26 135 67 186l411-411z m-352 630l-59 59-36-30 60-59 35 30z" horiz-adv-x="1000" />
<glyph glyph-name="glyph-13" unicode="&#xe80d;" d="m917 591l-192 161-53-64 191-161 54 64z m-589 97l-53 64-192-161 54-64 191 161z m172-25c-207 0-375-168-375-375s168-376 375-376 375 168 375 376-168 375-375 375z m0-667c-161 0-292 131-292 292s131 291 292 291 292-130 292-291-131-292-292-292z m-61 228l-88 88-44-44 132-132 250 250-44 44-206-206z" horiz-adv-x="1000" />
<glyph glyph-name="glyph-14" unicode="&#xe80e;" d="m250 79c0-23 19-41 42-41h41v-146c0-35 28-63 63-63s62 28 62 63v146h84v-146c0-35 28-63 62-63s63 28 63 63v146h41c23 0 42 18 42 41v417h-500v-417z m-104 417c-35 0-63-28-63-63v-291c0-35 28-63 63-63s62 28 62 63v291c0 35-28 63-62 63z m708 0c-34 0-62-28-62-63v-291c0-35 28-63 62-63s63 28 63 63v291c0 35-28 63-63 63z m-207 243l55 55c8 8 8 21 0 29s-22 8-30 0l-62-61c-33 16-70 26-110 26-40 0-77-10-111-27l-62 62c-8 8-21 8-29 0s-8-21 0-29l54-55c-62-45-102-119-102-201h500c0 82-41 156-103 201z m-230-118h-42v42h42v-42z m208 0h-42v42h42v-42z" horiz-adv-x="1000" />
<glyph glyph-name="glyph-15" unicode="&#xe80f;" d="m833 746h-666c-46 0-83-37-83-83l-1-751 167 167h583c46 0 84 38 84 84v500c0 46-38 83-84 83z m-291-375h-84v250h84v-250z m0-167h-84v84h84v-84z" horiz-adv-x="1000" />
<glyph glyph-name="glyph-16" unicode="&#xe810;" d="m792 704h-584c-46 0-83-37-83-83v-583c0-47 37-84 83-84h584c46 0 83 37 83 84v583c0 46-37 83-83 83z m-417-583h-83v292h83v-292z m167 0h-84v417h84v-417z m166 0h-83v167h83v-167z" horiz-adv-x="1000" />
<glyph glyph-name="glyph-17" unicode="&#xe811;" d="m792 329h-84v-125h-125v-83h209v208z m-500 125h125v84h-209v-209h84v125z m583 250h-750c-46 0-83-37-83-83v-583c0-47 37-84 83-84h750c46 0 83 37 83 84v583c0 46-37 83-83 83z m0-667h-750v585h750v-585z" horiz-adv-x="1000" />
<glyph glyph-name="glyph-18" unicode="&#xe812;" d="m792 704h-175c-17 49-63 84-117 84s-100-35-117-84h-175c-46 0-83-37-83-83v-583c0-47 37-84 83-84h584c46 0 83 37 83 84v583c0 46-37 83-83 83z m-292 0c23 0 42-18 42-41s-19-42-42-42-42 18-42 42 19 41 42 41z m83-583h-291v83h291v-83z m125 167h-416v83h416v-83z m0 166h-416v84h416v-84z" horiz-adv-x="1000" />
<glyph glyph-name="glyph-19" unicode="&#xe813;" d="m792 704h-175c-17 49-63 84-117 84s-100-35-117-84h-175c-46 0-83-37-83-83v-583c0-47 37-84 83-84h584c46 0 83 37 83 84v583c0 46-37 83-83 83z m-250-625h-84v84h84v-84z m0 167h-84v250h84v-250z m-42 375c-23 0-42 18-42 42s19 41 42 41 42-18 42-41-19-42-42-42z" horiz-adv-x="1000" />
<glyph glyph-name="glyph-20" unicode="&#xe814;" d="m792 704h-175c-17 49-63 84-117 84s-100-35-117-84h-175c-46 0-83-37-83-83v-583c0-47 37-84 83-84h584c46 0 83 37 83 84v583c0 46-37 83-83 83z m-292 0c23 0 42-18 42-41s-19-42-42-42-42 18-42 42 19 41 42 41z m167-500h-167v-125l-208 209 208 208v-125h167v-167z" horiz-adv-x="1000" />
<glyph glyph-name="glyph-21" unicode="&#xe815;" d="m792 704h-175c-17 49-63 84-117 84s-100-35-117-84h-175c-46 0-83-37-83-83v-583c0-47 37-84 83-84h584c46 0 83 37 83 84v583c0 46-37 83-83 83z m-292 0c23 0 42-18 42-41s-19-42-42-42-42 18-42 42 19 41 42 41z m0-166c69 0 125-56 125-125 0-70-56-125-125-125s-125 55-125 125c0 69 56 125 125 125z m250-500h-500v58c0 83 167 129 250 129s250-46 250-129v-58z" horiz-adv-x="1000" />
<glyph glyph-name="glyph-22" unicode="&#xe816;" d="m708 329h-208v-208h208v208z m-41 459v-84h-334v84h-83v-84h-42c-46 0-83-37-83-83l0-583c0-47 37-84 83-84h584c46 0 83 37 83 84v583c0 46-37 83-83 83h-42v84h-83z m125-750h-584v458h584v-458z" horiz-adv-x="1000" />
<glyph glyph-name="glyph-23" unicode="&#xe817;" d="m420 180l59-59 209 208-209 209-59-59 108-108h-403v-83h403l-108-108z m372 524h-584c-46 0-83-37-83-83v-167h83v167h584v-583h-584v166h-83v-166c0-47 37-84 83-84h584c46 0 83 37 83 84v583c0 46-37 83-83 83z" horiz-adv-x="1000" />
<glyph glyph-name="glyph-24" unicode="&#xe818;" d="m500 375c-25 0-46-21-46-46s21-46 46-46c25 0 46 21 46 46s-21 46-46 46z m0 371c-230 0-417-187-417-417 0-230 187-417 417-417s417 187 417 417c0 230-187 417-417 417z m91-508l-341-159 159 341 341 159-159-341z" horiz-adv-x="1000" />
<glyph glyph-name="glyph-25" unicode="&#xe819;" d="m375 155l-174 174-59-59 233-232 500 500-59 59z" horiz-adv-x="1000" />
<glyph glyph-name="glyph-26" unicode="&#xe81a;" d="m750 538l-59 59-264-265 59-59 264 265z m177 59l-441-442-174 174-59-59 233-232 500 500-59 59z m-910-327l233-232 59 59-233 232-59-59z" horiz-adv-x="1000" />
<glyph glyph-name="glyph-27" unicode="&#xe81b;" d="m833 288h-666c-23 0-42-19-42-42v-250c0-23 19-42 42-42h666c23 0 42 19 42 42v250c0 23-19 42-42 42z m-541-250c-46 0-84 37-84 83s38 83 84 83 83-37 83-83-37-83-83-83z m541 666h-666c-23 0-42-19-42-41v-250c0-23 19-42 42-42h666c23 0 42 19 42 42v250c0 22-19 41-42 41z m-541-250c-46 0-84 38-84 84s38 83 84 83 83-37 83-83-37-84-83-84z" horiz-adv-x="1000" />
<glyph glyph-name="glyph-28" unicode="&#xe81c;" d="m583 746h-333c-46 0-83-37-83-83l0-667c0-46 37-84 83-84h500c46 0 83 38 83 84v500l-250 250z m84-667h-334v84h334v-84z m0 167h-334v83h334v-83z m-125 208v229l229-229h-229z" horiz-adv-x="1000" />
<glyph glyph-name="glyph-29" unicode="&#xe81d;" d="m792 704h-175c-17 49-63 84-117 84s-100-35-117-84h-175c-46 0-83-37-83-83v-583c0-47 37-84 83-84h584c46 0 83 37 83 84v583c0 46-37 83-83 83z m-292 0c23 0 42-18 42-41s-19-42-42-42-42 18-42 42 19 41 42 41z m0-625l-208 209h125v166h166v-166h125l-208-209z" horiz-adv-x="1000" />
<glyph glyph-name="glyph-30" unicode="&#xe81e;" d="m792 704h-175c-17 49-63 84-117 84s-100-35-117-84h-175c-46 0-83-37-83-83v-583c0-47 37-84 83-84h584c46 0 83 37 83 84v583c0 46-37 83-83 83z m-292 0c23 0 42-18 42-41s-19-42-42-42-42 18-42 42 19 41 42 41z m-83-583l-167 167 59 59 108-108 274 274 59-59-333-333z" horiz-adv-x="1000" />
<glyph glyph-name="glyph-31" unicode="&#xe81f;" d="m500 579v-125l167 167-167 167v-125c-184 0-333-150-333-334 0-65 19-126 51-177l61 61c-18 34-29 74-29 116 0 138 112 250 250 250z m282-72l-61-61c18-35 29-74 29-117 0-138-112-250-250-250v125l-167-166 167-167v125c184 0 333 149 333 333 0 66-19 126-51 178z" horiz-adv-x="1000" />
<glyph glyph-name="glyph-32" unicode="&#xe820;" d="m807 411c-29 143-155 252-307 252-120 0-225-69-277-169-125-13-223-119-223-248 0-138 112-250 250-250h542c115 0 208 93 208 208 0 110-86 199-193 207z m-224-123v-167h-166v167h-125l208 208 208-208h-125z" horiz-adv-x="1000" />
<glyph glyph-name="glyph-33" unicode="&#xe821;" d="m750 746h-500c-46 0-83-37-83-83v-667c0-46 37-84 83-84h500c46 0 83 38 83 84v667c0 46-37 83-83 83z m-500-83h208v-334l-104 63-104-63v334z" horiz-adv-x="1000" />
<glyph glyph-name="glyph-34" unicode="&#xe822;" d="m708 704h-416c-46 0-83-37-83-83l-1-667 292 125 292-125v667c0 46-38 83-84 83z" horiz-adv-x="1000" />
<glyph glyph-name="glyph-35" unicode="&#xe823;" d="m708 704h-416c-46 0-83-37-83-83l-1-667 292 125 292-125v667c0 46-38 83-84 83z m0-625l-208 91-208-91v542h416v-542z" horiz-adv-x="1000" />
<glyph glyph-name="glyph-36" unicode="&#xe824;" d="m792 496l-167-167h125c0-138-112-250-250-250-42 0-82 11-117 29l-61-61c52-32 113-51 178-51 184 0 333 149 333 333h125l-166 167z m-542-167c0 138 112 250 250 250 42 0 82-10 117-29l61 61c-52 32-113 52-178 52-184 0-333-150-333-334h-125l166-166 167 166h-125z" horiz-adv-x="1000" />
<glyph glyph-name="glyph-37" unicode="&#xe825;" d="m833 496h-117c-18 32-44 61-75 82l67 67-59 59-90-90c-19 4-39 7-59 7s-40-3-59-7l-90 90-59-59 67-67c-31-21-56-50-75-82h-117v-83h87c-2-14-4-28-4-42v-42h-83v-83h83v-42c0-14 2-28 4-41h-87v-84h117c43-74 124-125 216-125s173 51 216 125h117v84h-87c3 13 4 27 4 41v42h83v83h-83v42c0 14-1 28-4 42h87v83z m-250-333h-166v83h166v-83z m0 166h-166v84h166v-84z" horiz-adv-x="1000" />
<glyph glyph-name="glyph-38" unicode="&#xe826;" d="m833 663h-666c-46 0-83-38-83-84l-1-500c0-46 38-83 84-83h666c46 0 84 37 84 83v500c0 46-38 84-84 84z m0-584h-666v250h666v-250z m0 417h-666v83h666v-83z" horiz-adv-x="1000" />
<glyph glyph-name="glyph-39" unicode="&#xe827;" d="m750 746h-500c-46 0-83-37-83-83v-667c0-46 37-84 83-84h500c46 0 83 38 83 84v667c0 46-37 83-83 83z m-500-83h208v-334l-104 63-104-63v334z" horiz-adv-x="1000" />
<glyph glyph-name="glyph-40" unicode="&#xe828;" d="m125 288h333v416h-333v-416z m0-334h333v250h-333v-250z m417 0h333v417h-333v-417z m0 750v-250h333v250h-333z" horiz-adv-x="1000" />
<glyph glyph-name="glyph-41" unicode="&#xe829;" d="m736 499l-236 236-236-236c-130-130-130-341 0-472 65-65 151-97 236-97s171 32 236 97c130 131 130 342 0 472z m-236-486c-67 0-130 26-177 74-47 47-73 109-73 176s26 130 73 177l177 177v-604z" horiz-adv-x="1000" />
<glyph glyph-name="glyph-42" unicode="&#xe82a;" d="m875 704h-750c-46 0-83-37-83-84v-166h83v167h750v-584h-750v167h-83v-167c0-46 37-82 83-82h750c46 0 83 36 83 82v583c0 47-37 84-83 84z m-417-541l167 166-167 167v-125h-416v-83h416v-125z" horiz-adv-x="1000" />
<glyph glyph-name="glyph-43" unicode="&#xe82b;" d="m458 121h84v250h-84v-250z m42 625c-230 0-417-187-417-417s187-417 417-417 417 187 417 417-187 417-417 417z m0-750c-184 0-333 149-333 333s149 334 333 334 333-150 333-334-149-333-333-333z m-42 458h84v84h-84v-84z" horiz-adv-x="1000" />
<glyph glyph-name="glyph-44" unicode="&#xe82c;" d="m500 746c-230 0-417-187-417-417s187-417 417-417 417 187 417 417-187 417-417 417z m42-625h-84v250h84v-250z m0 333h-84v84h84v-84z" horiz-adv-x="1000" />
<glyph glyph-name="glyph-45" unicode="&#xe82d;" d="m417-4v250h166v-250h209v333h125l-417 375-417-375h125v-333z" horiz-adv-x="1000" />
<glyph glyph-name="glyph-46" unicode="&#xe82e;" d="m542 704c-208 0-375-168-375-375h-125l162-162 3-6 168 168h-125c0 161 131 292 292 292s291-131 291-292-130-291-291-291c-81 0-154 32-206 85l-59-59c67-68 161-110 265-110 207 0 375 168 375 375s-168 375-375 375z m-42-208v-208l178-106 30 50-145 87v177h-63z" horiz-adv-x="1000" />
<glyph glyph-name="glyph-47" unicode="&#xe82f;" d="m750 496h-42v83c0 115-93 209-208 209s-208-94-208-209v-83h-42c-46 0-83-37-83-83v-417c0-46 37-84 83-84h500c46 0 83 38 83 84v417c0 46-37 83-83 83z m-250-375c-46 0-83 37-83 83s37 84 83 84 83-38 83-84-37-83-83-83z m129 375h-258v83c0 71 58 129 129 129s129-58 129-129v-83z" horiz-adv-x="1000" />
<glyph glyph-name="glyph-48" unicode="&#xe830;" d="m250 38c0-47 37-84 83-84h334c46 0 83 37 83 84v500h-500v-500z m542 625h-146l-42 41h-208l-42-41h-146v-84h584v84z" horiz-adv-x="1000" />
<glyph glyph-name="glyph-49" unicode="&#xe831;" d="m608 496l-108-108-108 108-59-59 108-108-108-107 59-59 108 107 108-107 59 59-108 107 108 108-59 59z m-108 250c-230 0-417-187-417-417s187-417 417-417 417 187 417 417-187 417-417 417z m0-750c-184 0-333 149-333 333s149 334 333 334 333-150 333-334-149-333-333-333z" horiz-adv-x="1000" />
<glyph glyph-name="glyph-50" unicode="&#xe832;" d="m500 746c-230 0-417-187-417-417s187-417 417-417 417 187 417 417-187 417-417 417z m42-708h-84v83h84v-83z m86 322l-38-38c-30-30-48-55-48-118h-84v21c0 46 19 88 49 118l52 52c15 15 24 36 24 59 0 46-37 84-83 84s-83-38-83-84h-84c0 92 75 167 167 167s167-75 167-167c0-36-15-70-39-94z" horiz-adv-x="1000" />
<glyph glyph-name="glyph-51" unicode="&#xe833;" d="m500 110l258-156-69 293 228 197-300 26-117 276-117-276-300-26 228-197-68-293z" horiz-adv-x="1000" />
<glyph glyph-name="glyph-52" unicode="&#xe834;" d="m500 746c-230 0-417-187-417-417 0-230 187-417 417-417s417 187 417 417c0 230-187 417-417 417z m-167-646c-57 0-104 47-104 104s47 104 104 104 105-46 105-104-47-104-105-104z m63 396c0 57 47 104 104 104s104-47 104-104-46-104-104-104-104 46-104 104z m271-396c-58 0-104 47-104 104s46 104 104 104 104-46 104-104-47-104-104-104z" horiz-adv-x="1000" />
<glyph glyph-name="glyph-53" unicode="&#xe835;" d="m792 454h-167v250h-250v-250h-167l292-291 292 291z m-584-375v-83h584v83h-584z" horiz-adv-x="1000" />
<glyph glyph-name="glyph-54" unicode="&#xe836;" d="m125 288h83v83h-83v-83z m0-167h83v83h-83v-83z m83-167v84h-83c0-47 37-84 83-84z m-83 500h83v84h-83v-84z m500-500h83v84h-83v-84z m167 750h-417c-46 0-83-37-83-83v-417c0-46 37-83 83-83h417c46 0 83 37 83 83v417c0 46-37 83-83 83z m0-500h-417v417h417v-417z m-334-250h84v84h-84v-84z m-166 0h83v84h-83v-84z" horiz-adv-x="1000" />
<glyph glyph-name="glyph-55" unicode="&#xe837;" d="m375 538h-83v-84h83v84z m0-167h-83v-83h83v83z m0 333c-46 0-83-37-83-83h83v83z m167-500h-84v-83h84v83z m250 500v-83h83c0 46-37 83-83 83z m-250 0h-84v-83h84v83z m-167-583v83h-83c0-46 37-83 83-83z m417 167h83v83h-83v-83z m0 166h83v84h-83v-84z m0-333c46 0 83 37 83 83h-83v-83z m-584 417h-83v-500c0-47 37-84 83-84h500v84h-500v500z m417 83h83v83h-83v-83z m0-500h83v83h-83v-83z" horiz-adv-x="1000" />
<glyph glyph-name="glyph-56" unicode="&#xe838;" d="m458 579c58 0 110-23 148-61l-106-105h250v250l-85-86c-53 53-126 86-207 86-146 0-268-109-288-250h84c20 95 104 166 204 166z m235-380c28 37 47 82 54 130h-84c-20-95-104-166-205-166-57 0-109 23-147 61l106 105h-250v-250l85 86c53-53 126-86 206-86 65 0 125 21 173 57l202-202 62 62-202 203z" horiz-adv-x="1000" />
<glyph glyph-name="glyph-57" unicode="&#xe839;" d="m833 13v483l-250 250h-333c-46 0-83-37-83-83l0-667c0-46 37-84 83-84h500c19 0 36 7 49 17l-184 185c-33-22-72-35-115-35-115 0-208 94-208 209s93 208 208 208 208-93 208-208c0-43-13-82-34-115l159-160z m-458 275c0-69 56-125 125-125s125 56 125 125-56 125-125 125-125-56-125-125z" horiz-adv-x="1000" />
<glyph glyph-name="glyph-58" unicode="&#xe83a;" d="m688 704c-73 0-143-34-188-87-45 53-115 87-187 87-129 0-230-100-230-229 0-157 142-286 357-481l60-54 60 54c215 195 357 324 357 481 0 129-101 229-229 229z m-184-648l-4-4-4 4c-198 180-329 299-329 419 0 83 62 146 146 146 64 0 126-42 148-98h78c22 56 84 98 149 98 83 0 145-63 145-146 0-120-130-239-329-419z" horiz-adv-x="1000" />
<glyph glyph-name="glyph-59" unicode="&#xe83b;" d="m500-60l-60 54c-215 195-357 324-357 481 0 129 101 229 230 229 72 0 142-34 187-87 45 53 115 87 188 87 128 0 229-100 229-229 0-157-142-286-357-481l-60-54z" horiz-adv-x="1000" />
<glyph glyph-name="glyph-60" unicode="&#xe83c;" d="m612 117c-31-24-70-38-112-38s-81 14-112 38c-9 7-22 5-29-4s-6-22 3-29c38-30 87-46 138-46s100 16 138 46c9 7 11 20 4 29-8 9-21 11-30 4z m-216 191c0-23-19-41-42-41s-41 18-41 41c0 23 18 42 41 42s42-19 42-42z m104 521c-276 0-500-224-500-500s224-500 500-500 500 224 500 500-224 500-500 500z m332-617c-46-156-178-269-335-269-158 0-290 113-335 270-50 4-89 49-89 104 0 53 36 97 82 104v0c87 61 158 146 170 211l1 0v0c56-109 262-216 492-211 5 1 9 2 13 2 53 0 96-48 96-106 0-58-43-105-95-105z m-144 96c0-23-19-41-42-41s-42 18-42 41c0 23 19 42 42 42s42-19 42-42z" horiz-adv-x="1000" />
<glyph glyph-name="glyph-61" unicode="&#xe83d;" d="m854 371h-62v167c0 46-38 83-84 83h-166v62c0 58-47 105-104 105s-105-47-105-105v-62h-166c-46 0-83-37-83-83l0-159h62c62 0 112-50 112-112s-50-113-112-113h-62l-1-158c0-46 38-84 84-84h158v63c0 62 50 113 113 113s112-51 112-113v-63h158c46 0 84 38 84 84v167h62c58 0 104 46 104 104s-46 104-104 104z" horiz-adv-x="1000" />
<glyph glyph-name="glyph-62" unicode="&#xe83e;" d="m735 586c-15 21-40 35-68 35l-459-1c-46 0-83-36-83-82v-417c0-46 37-83 83-83l459 0c28 0 53 14 68 35l182 256-182 257z" horiz-adv-x="1000" />
<glyph glyph-name="glyph-63" unicode="&#xe83f;" d="m735 586c-15 21-40 35-68 35l-459-1c-46 0-83-36-83-82v-417c0-46 37-83 83-83l459 0c28 0 53 14 68 35l182 256-182 257z m-68-465h-459v417h459l147-209-147-208z" horiz-adv-x="1000" />
<glyph glyph-name="glyph-64" unicode="&#xe840;" d="m500 746c-230 0-417-187-417-417s187-417 417-417c230 0 417 187 417 417s-187 417-417 417z m288-250h-123c-13 52-32 102-57 148 77-26 140-79 180-148z m-288 165c35-50 62-106 80-165h-160c18 59 45 115 80 165z m-322-415c-7 27-11 54-11 83s4 57 11 84h140c-3-28-5-55-5-84s2-56 5-83h-140z m34-83h122c14-53 33-103 58-149-77 26-140 80-180 149z m122 333h-122c40 69 103 122 180 148-25-46-44-96-58-148z m166-499c-35 50-62 106-80 166h160c-18-60-45-116-80-166z m98 249h-195c-4 27-7 55-7 83s3 56 7 84h195c4-28 6-55 6-84s-2-56-6-83z m10-232c25 47 44 96 58 149h123c-41-69-104-123-181-149z m74 232c3 27 6 55 6 83s-3 56-6 84h140c7-27 11-55 11-84s-4-56-11-83h-140z" horiz-adv-x="1000" />
<glyph glyph-name="glyph-65" unicode="&#xe841;" d="m792 38h-584v583h292v83h-292c-46 0-83-37-83-83v-583c0-47 37-84 83-84h584c46 0 83 37 83 84v291h-83v-291z m-209 666v-83h150l-410-410 59-59 410 410v-149h83v291h-292z" horiz-adv-x="1000" />
<glyph glyph-name="glyph-66" unicode="&#xe842;" d="m125 288h83v83h-83v-83z m0-167h83v83h-83v-83z m0 333h83v84h-83v-84z m167-166h583v83h-583v-83z m0-167h583v83h-583v-83z m0 417v-84h583v84h-583z" horiz-adv-x="1000" />
<glyph glyph-name="glyph-67" unicode="&#xe843;" d="m500 121c46 0 83 37 83 83s-37 84-83 84-83-38-83-84 37-83 83-83z m250 375h-42v83c0 115-93 209-208 209s-208-94-208-209h79c0 71 58 129 129 129s129-58 129-129v-83h-379c-46 0-83-37-83-83v-417c0-46 37-84 83-84h500c46 0 83 38 83 84v417c0 46-37 83-83 83z m0-500h-500v417h500v-417z" horiz-adv-x="1000" />
<glyph glyph-name="glyph-68" unicode="&#xe844;" d="m750 496h-42v83c0 115-93 209-208 209s-208-94-208-209v-83h-42c-46 0-83-37-83-83v-417c0-46 37-84 83-84h500c46 0 83 38 83 84v417c0 46-37 83-83 83z m-250 212c71 0 129-58 129-129v-83h-254v83h-4c0 71 58 129 129 129z m250-712h-500v417h500v-417z m-250 125c46 0 83 37 83 83s-37 84-83 84-83-38-83-84 37-83 83-83z" horiz-adv-x="1000" />
<glyph glyph-name="glyph-69" unicode="&#xe845;" d="m750 496h-42v83c0 115-93 209-208 209s-208-94-208-209v-83h-42c-46 0-83-37-83-83v-417c0-46 37-84 83-84h500c46 0 83 38 83 84v417c0 46-37 83-83 83z m-250-375c-46 0-83 37-83 83s37 84 83 84 83-38 83-84-37-83-83-83z m129 375h-258v83c0 71 58 129 129 129s129-58 129-129v-83z" horiz-adv-x="1000" />
<glyph glyph-name="glyph-70" unicode="&#xe846;" d="m892 347l-375 375c-15 15-35 24-59 24h-291c-46 0-84-37-84-83v-292c0-23 10-44 25-59l375-375c15-15 36-25 59-25 23 0 44 10 59 25l291 292c15 15 25 36 25 59 0 23-10 44-25 59z m-663 191c-34 0-62 27-62 62s28 63 62 63 63-28 63-63-28-62-63-62z m491-345l-178-178-178 178c-19 19-31 45-31 74 0 57 47 104 105 104 28 0 55-12 73-31l31-30 30 30c19 19 45 31 74 31 57 0 104-47 104-104 0-29-12-55-30-74z" horiz-adv-x="1000" />
<glyph glyph-name="glyph-71" unicode="&#xe847;" d="m833 579h-416v-250h-84v334h250v166h-333v-250h-83c-46 0-84-37-84-83v-500c0-46 38-84 84-84h666c46 0 84 38 84 84v500c0 46-38 83-84 83z" horiz-adv-x="1000" />
<glyph glyph-name="glyph-72" unicode="&#xe848;" d="m583 746h-333c-46 0-83-37-83-83l0-667c0-46 37-84 83-84h500c46 0 83 38 83 84v500l-250 250z m84-583h-125v-125h-84v125h-125v83h125v125h84v-125h125v-83z m-125 291v229l229-229h-229z" horiz-adv-x="1000" />
<glyph glyph-name="glyph-73" unicode="&#xe849;" d="m792 663h-584c-46 0-83-38-83-84v-500c0-46 37-83 83-83h167v83h-167v417h584v-417h-167v-83h167c46 0 83 37 83 83v500c0 46-37 84-83 84z m-292-250l-167-167h125v-250h84v250h125l-167 167z" horiz-adv-x="1000" />
<glyph glyph-name="glyph-74" unicode="&#xe84a;" d="m792 38h-584v583h292v83h-292c-46 0-83-37-83-83v-583c0-47 37-84 83-84h584c46 0 83 37 83 84v291h-83v-291z m-209 666v-83h150l-410-410 59-59 410 410v-149h83v291h-292z" horiz-adv-x="1000" />
<glyph glyph-name="glyph-75" unicode="&#xe84b;" d="m417 454h166v125h125l-208 209-208-209h125v-125z m-42-41h-125v125l-208-209 208-208v125h125v167z m583-84l-208 209v-125h-125v-167h125v-125l208 208z m-375-125h-166v-125h-125l208-208 208 208h-125v125z" horiz-adv-x="1000" />
<glyph glyph-name="glyph-76" unicode="&#xe84c;" d="m458 496c-69 0-125-56-125-125s56-125 125-125 125 56 125 125-56 125-125 125z m334 208h-584c-46 0-83-37-83-83v-583c0-47 37-84 83-84h584c46 0 83 37 83 84v583c0 46-37 83-83 83z m-59-666l-160 159c-33-22-72-34-115-34-115 0-208 93-208 208s93 208 208 208 209-93 209-208c0-43-13-82-35-115l160-159-59-59z" horiz-adv-x="1000" />
<glyph glyph-name="glyph-77" unicode="&#xe84d;" d="m833 663h-666c-46 0-83-38-83-84l-1-500c0-46 38-83 84-83h666c46 0 84 37 84 83v500c0 46-38 84-84 84z m0-584h-666v250h666v-250z m0 417h-666v83h666v-83z" horiz-adv-x="1000" />
<glyph glyph-name="glyph-78" unicode="&#xe84e;" d="m833 621h-132l-76 83h-250l-76-83h-132c-46 0-84-37-84-83v-500c0-47 38-84 84-84h291v87c-118 20-208 123-208 247h83c0-92 75-167 167-167s167 75 167 167h83c0-124-90-227-208-247v-87h291c46 0 84 37 84 84v500c0 46-38 83-84 83z m-250-333c0-46-37-84-83-84s-83 38-83 84v166c0 46 37 84 83 84s83-38 83-84v-166z" horiz-adv-x="1000" />
<glyph glyph-name="glyph-79" unicode="&#xe84f;" d="m792 704h-42v84h-83v-84h-334v84h-83v-84h-42c-46 0-83-37-83-83v-583c0-47 37-84 83-84h584c46 0 83 37 83 84v583c0 46-37 83-83 83z m-292-125c69 0 125-56 125-125 0-69-56-125-125-125s-125 56-125 125c0 69 56 125 125 125z m250-500h-500v42c0 83 167 129 250 129s250-46 250-129v-42z" horiz-adv-x="1000" />
<glyph glyph-name="glyph-80" unicode="&#xe850;" d="m791 350c14 0 29-1 42-3v482l-833-833h482c-2 14-3 27-3 42 0 172 140 312 312 312z m155-333c1 7 2 13 2 21 0 6-1 13-2 20l44 34c4 3 5 9 3 14l-42 72c-3 4-8 6-13 4l-52-20c-11 8-22 15-35 20l-8 55c0 5-5 9-10 9h-83c-6 0-10-4-11-9l-7-55c-13-5-25-12-35-20l-52 20c-5 2-11 0-13-4l-42-72c-2-5-1-11 3-14l44-34c-1-7-2-14-2-20s1-14 2-21l-44-34c-4-3-5-9-3-14l42-72c3-4 8-6 13-4l52 20c10-8 22-15 35-20l7-55c1-5 6-9 11-9h83c5 0 9 4 10 9l8 55c13 5 24 12 35 20l52-20c5-2 10 0 13 4l41 72c3 5 2 11-2 14l-44 34z m-155-42c-34 0-62 28-62 63s28 62 62 62 63-28 63-62-28-63-63-63z" horiz-adv-x="1000" />
<glyph glyph-name="glyph-81" unicode="&#xe851;" d="m542 538h-84v-84h84v84z m0-167h-84v-250h84v250z m166 416l-416 1c-46 0-84-38-84-84v-750c0-46 38-83 84-83h416c46 0 84 37 84 83v750c0 46-38 83-84 83z m0-749h-416v583h416v-583z" horiz-adv-x="1000" />
<glyph glyph-name="glyph-82" unicode="&#xe852;" d="m500 583c48 0 88-39 88-87s-40-88-88-88-87 40-87 88 39 87 87 87z m0-375c124 0 254-60 254-87v-46h-508v46c0 27 130 87 254 87z m0 455c-92 0-167-75-167-167 0-92 75-167 167-167s167 75 167 167c0 92-75 167-167 167z m0-375c-111 0-333-56-333-167v-125h666v125c0 111-222 167-333 167z" horiz-adv-x="1000" />
<glyph glyph-name="glyph-83" unicode="&#xe853;" d="m83 579h-83v-208h0l0-375c0-46 37-84 83-84h750v84h-750v583z m834 84h-334l-83 83h-250c-46 0-83-37-83-83l0-500c0-46 37-84 83-84h667c46 0 83 38 83 84v416c0 46-37 84-83 84z m-625-459l187 250 146-187 104 125 146-188h-583z" horiz-adv-x="1000" />
<glyph glyph-name="glyph-84" unicode="&#xe854;" d="m833 183c-51 0-102 9-148 24-15 5-31 1-43-10l-91-92c-118 60-215 157-275 274l92 93c11 11 15 27 10 42-15 46-24 97-24 149 0 23-18 41-41 41h-146c-23 0-42-18-42-41 0-392 317-709 708-709 24 0 42 19 42 42v146c0 23-18 41-42 41z m-333 521v-416l125 125h250v291h-375z" horiz-adv-x="1000" />
<glyph glyph-name="glyph-85" unicode="&#xe855;" d="m500 704c-210 0-369-77-500-176l500-616 500 615c-131 99-290 177-500 177z m42-541h-84v250h84v-250z m-84 333v83h84v-83h-84z" horiz-adv-x="1000" />
<glyph glyph-name="glyph-86" unicode="&#xe856;" d="m792 538h-334v-250h334v250z m83 166h-750c-46 0-83-37-83-83v-583c0-47 37-83 83-83h750c46 0 83 37 83 83v583c0 46-37 83-83 83z m0-667h-750v585h750v-585z" horiz-adv-x="1000" />
<glyph glyph-name="glyph-87" unicode="&#xe857;" d="m792 663h-167l-329-527-108 193 187 334h-167l-187-334 187-333h167l329 526 109-193-188-333h167l187 333z" horiz-adv-x="1000" />
<glyph glyph-name="glyph-88" unicode="&#xe858;" d="m792 496h-584c-69 0-125-56-125-125v-250h167v-167h500v167h167v250c0 69-56 125-125 125z m-125-458h-334v208h334v-208z m125 291c-23 0-42 19-42 42s19 42 42 42c23 0 41-19 41-42s-18-42-41-42z m-42 375h-500v-166h500v166z" horiz-adv-x="1000" />
<glyph glyph-name="glyph-89" unicode="&#xe859;" d="m500 746c-230 0-417-187-417-417s187-417 417-417c230 0 417 187 417 417s-187 417-417 417z m0-750c-184 0-333 149-333 333s149 334 333 334 333-150 333-334-149-333-333-333z m21 542h-63v-250l219-132 31 52-187 111z" horiz-adv-x="1000" />
<glyph glyph-name="glyph-90" unicode="&#xe85a;" d="m875 579h-83v-375h-542v-83c0-23 19-42 42-42h458l167-167v626c0 22-19 41-42 41z m-167-250v375c0 23-18 42-41 42h-542c-23 0-42-19-42-42v-583l167 167h417c23 0 41 18 41 41z" horiz-adv-x="1000" />
<glyph glyph-name="glyph-91" unicode="&#xe85b;" d="m833 579h-91c5 13 8 27 8 42 0 69-56 125-125 125-43 0-82-22-104-56l-21-28-21 28c-22 34-60 56-104 56-69 0-125-56-125-125 0-15 3-29 8-42h-91c-46 0-83-37-83-83l-1-458c0-47 38-84 84-84h666c46 0 84 37 84 84v458c0 46-38 83-84 83z m-208 84c23 0 42-19 42-42s-19-42-42-42-42 19-42 42 19 42 42 42z m-250 0c23 0 42-19 42-42s-19-42-42-42-42 19-42 42 19 42 42 42z m458-625h-666v83h666v-83z m0 208h-666v250h211l-86-118 67-49 141 192 42-57 99-135 67 49-86 118h211v-250z" horiz-adv-x="1000" />
<glyph glyph-name="glyph-92" unicode="&#xe85c;" d="m750 121h-500v83h500v-83z m0 167h-500v83h500v-83z m0 166h-500v84h500v-84z m-625-542l63 63 62-63 63 63 62-63 63 63 62-63 63 63 62-63 63 63 62-63 63 63 62-63v834l-62-63-63 63-62-63-63 63-62-63-63 63-62-63-63 63-62-63-63 63-62-63-63 63v-834z" horiz-adv-x="1000" />
<glyph glyph-name="glyph-93" unicode="&#xe85d;" d="m125 204h750v84h-750v-84z m0-166h750v83h-750v-83z m0 333h750v83h-750v-83z m0 250v-83h750v83h-750z" horiz-adv-x="1000" />
<glyph glyph-name="glyph-94" unicode="&#xe85e;" d="m42-46h916l-458 792-458-792z m500 125h-84v84h84v-84z m0 167h-84v167h84v-167z" horiz-adv-x="1000" />
<glyph glyph-name="glyph-95" unicode="&#xe85f;" d="m542 704c-208 0-375-168-375-375h-125l162-162 3-6 168 168h-125c0 161 131 292 292 292s291-131 291-292-130-291-291-291c-81 0-154 32-206 85l-59-59c67-68 161-110 265-110 207 0 375 168 375 375s-168 375-375 375z m-42-208v-208l178-106 30 50-145 87v177h-63z" horiz-adv-x="1000" />
<glyph glyph-name="glyph-96" unicode="&#xe860;" d="m500 746c-230 0-417-187-417-417s187-417 417-417c230 0 417 187 417 417s-187 417-417 417z m0-750c-184 0-333 149-333 333s149 334 333 334 333-150 333-334-149-333-333-333z m21 542h-63v-250l219-132 31 52-187 111z" horiz-adv-x="1000" />
<glyph glyph-name="glyph-97" unicode="&#xe861;" d="m500 746c-161 0-292-131-292-292 0-219 292-542 292-542s292 323 292 542c0 161-131 292-292 292z m0-396c-57 0-104 47-104 104s47 104 104 104 104-46 104-104-46-104-104-104z" horiz-adv-x="1000" />
<glyph glyph-name="glyph-98" unicode="&#xe862;" d="m646 246h-33l-12 11c41 48 66 109 66 176 0 150-122 271-271 271s-271-121-271-271 121-270 271-270c67 0 129 24 176 65l11-12v-33l209-208 62 63-208 208z m-250 0c-104 0-188 84-188 187s84 188 188 188 187-84 187-188-84-187-187-187z" horiz-adv-x="1000" />
<glyph glyph-name="glyph-99" unicode="&#xe863;" d="m810 289c1 13 3 26 3 40s-2 28-3 41l88 69c8 6 10 17 5 26l-84 145c-5 9-16 13-25 9l-104-42c-21 16-45 30-70 41l-16 110c-2 10-10 18-21 18h-166c-11 0-19-8-21-18l-16-110c-25-11-48-24-70-41l-104 42c-9 3-20 0-25-9l-83-145c-6-8-3-20 5-26l87-69c-1-13-2-27-2-41s1-27 2-40l-87-69c-8-7-11-18-5-27l83-144c5-9 16-13 25-9l104 42c22-17 45-31 70-42l16-110c2-10 10-18 21-18h166c11 0 19 8 21 18l16 110c25 11 49 25 70 42l104-42c9-4 20 0 25 9l84 144c5 9 2 20-5 27l-88 69z m-310-106c-81 0-146 66-146 146s65 146 146 146 146-65 146-146-65-146-146-146z" horiz-adv-x="1000" />
<glyph glyph-name="glyph-100" unicode="&#xe864;" d="m583 329c0 46-37 84-83 84s-83-38-83-84 37-83 83-83 83 37 83 83z m-83 375c-207 0-375-168-375-375h-125l167-166 166 166h-125c0 161 131 292 292 292s292-131 292-292-131-291-292-291c-63 0-121 20-169 54l-59-60c63-49 142-78 228-78 207 0 375 168 375 375s-168 375-375 375z" horiz-adv-x="1000" />
<glyph glyph-name="glyph-101" unicode="&#xe865;" d="m500 413c-46 0-83-38-83-84s37-83 83-83 83 37 83 83-37 84-83 84z m292 291h-584c-46 0-83-37-83-83v-583c0-47 37-84 83-84h584c46 0 83 37 83 84v583c0 46-37 83-83 83z m-73-375c0-9-1-19-2-28l61-49c6-4 7-12 4-18l-59-101c-3-6-11-9-18-6l-72 29c-15-12-32-21-50-29l-10-77c-1-7-7-12-15-12h-116c-8 0-14 5-15 12l-10 77c-18 7-35 17-50 29l-72-29c-7-3-15 0-18 6l-59 101c-3 6-2 14 4 19l61 48c-1 9-2 18-2 28 0 10 1 19 2 29l-61 48c-6 4-7 12-4 18l59 101c3 7 11 9 18 7l72-29c15 11 32 21 50 28l10 78c1 6 7 12 15 12h116c8 0 14-6 15-12l11-78c17-7 34-17 49-28l72 29c7 2 15 0 18-7l59-101c3-6 2-14-4-18l-61-48c1-10 2-19 2-29z" horiz-adv-x="1000" />
<glyph glyph-name="glyph-102" unicode="&#xe866;" d="m917 444l-300 26-117 276-117-276-300-26 228-197-68-293 257 156 258-156-68 293 227 197z m-417-256l-157-95 42 178-138 120 182 16 71 168 71-168 183-16-139-120 42-178-157 95z" horiz-adv-x="1000" />
<glyph glyph-name="glyph-103" unicode="&#xe867;" d="m917 423l-300 26-117 276-117-276-300-26 228-197-68-293 257 156 258-156-68 293 227 197z m-417-256v387l71-168 183-16-139-120 42-178-157 95z" horiz-adv-x="1000" />
<glyph glyph-name="glyph-104" unicode="&#xe868;" d="m500 110l258-156-69 293 228 197-300 26-117 276-117-276-300-26 228-197-68-293z" horiz-adv-x="1000" />
<glyph glyph-name="glyph-105" unicode="&#xe869;" d="m500 746c-230 0-417-187-417-417s187-417 417-417 417 187 417 417-187 417-417 417z m0-750c-184 0-333 149-333 333s149 334 333 334 333-150 333-334-149-333-333-333z" horiz-adv-x="1000" />
<glyph glyph-name="glyph-106" unicode="&#xe86a;" d="m500 538c-115 0-208-94-208-209s93-208 208-208 208 93 208 208-93 209-208 209z m0 208c-230 0-417-187-417-417s187-417 417-417 417 187 417 417-187 417-417 417z m0-750c-184 0-333 149-333 333s149 334 333 334 333-150 333-334-149-333-333-333z" horiz-adv-x="1000" />
<glyph glyph-name="glyph-107" unicode="&#xe86b;" d="m792 704h-584c-46 0-83-37-83-83l0-583c0-47 37-84 83-84h584c46 0 83 37 83 84v583c0 46-37 83-83 83z m-42-458h-167v-167h-166v167h-167v167h167v166h166v-166h167v-167z" horiz-adv-x="1000" />
<glyph glyph-name="glyph-108" unicode="&#xe86c;" d="m292 288c69 0 125 56 125 125s-56 125-125 125-125-56-125-125 56-125 125-125z m500 250h-334v-292h-333v375h-83v-625h83v125h750v-125h83v375c0 92-74 167-166 167z" horiz-adv-x="1000" />
<glyph glyph-name="glyph-109" unicode="&#xe86d;" d="m382 128c65-65 171-65 236 0s65 171 0 236l-236-236z m368 617l-500 1c-46 0-83-37-83-83v-667c0-46 37-84 83-84h500c46 0 83 38 83 84v667c0 46-37 82-83 82z m-333-82c23 0 41-19 41-42s-18-42-41-42-42 19-42 42 19 42 42 42z m-125 0c23 0 41-19 41-42s-18-42-41-42-42 19-42 42 19 42 42 42z m208-667c-138 0-250 112-250 250s112 250 250 250 250-112 250-250-112-250-250-250z" horiz-adv-x="1000" />
<glyph glyph-name="glyph-110" unicode="&#xe86e;" d="m500 348c-98 92-230 148-375 148v-458c145 0 277-57 375-148 99 91 230 148 375 148v458c-145 0-276-56-375-148z m0 148c69 0 125 56 125 125s-56 125-125 125-125-56-125-125 56-125 125-125z" horiz-adv-x="1000" />
<glyph glyph-name="glyph-111" unicode="&#xe86f;" d="m792 579h-84c0 115-93 209-208 209s-208-94-208-209h-84c-46 0-83-37-83-83l0-500c0-46 37-84 83-84h584c46 0 83 38 83 84v500c0 46-37 83-83 83z m-292 125c69 0 125-56 125-125h-250c0 69 56 125 125 125z m0-416c-115 0-208 93-208 208h83c0-69 56-125 125-125s125 56 125 125h83c0-115-93-208-208-208z" horiz-adv-x="1000" />
<glyph glyph-name="glyph-112" unicode="&#xe870;" d="m750 704v-83h-83v83h-334v-83h-83v83h-83v-750h83v84h83v-84h334v84h83v-84h83v750h-83z m-417-583h-83v83h83v-83z m0 167h-83v83h83v-83z m0 166h-83v84h83v-84z m417-333h-83v83h83v-83z m0 167h-83v83h83v-83z m0 166h-83v84h83v-84z" horiz-adv-x="1000" />
<glyph glyph-name="glyph-113" unicode="&#xe871;" d="m892 347l-375 375c-15 15-36 24-59 24h-291c-46 0-84-37-84-83v-292c0-23 10-44 25-59l375-375c15-15 36-25 59-25s44 10 59 25l291 292c15 15 25 36 25 59 0 23-10 44-25 59z m-663 191c-34 0-62 27-62 62s28 63 62 63 63-28 63-63-28-62-63-62z" horiz-adv-x="1000" />
<glyph glyph-name="glyph-114" unicode="&#xe872;" d="m542 704h-292v-750h167v250h125c138 0 250 112 250 250s-112 250-250 250z m8-333h-133v167h133c46 0 83-38 83-84s-37-83-83-83z" horiz-adv-x="1000" />
<glyph glyph-name="glyph-115" unicode="&#xe873;" d="m875 621h-110l48 131-98 36-61-167h-529v-83l83-250-83-250v-84h750v84l-83 250 83 250v83z m-208-375h-125v-125h-84v125h-125v83h125v125h84v-125h125v-83z" horiz-adv-x="1000" />
<glyph glyph-name="glyph-116" unicode="&#xe874;" d="m276 379c60-117 157-214 275-274l91 92c12 11 28 15 43 10 46-15 97-24 148-24 24 0 42-18 42-41v-146c0-23-18-42-42-42-391 0-708 317-708 709 0 23 19 41 42 41h146c23 0 41-18 41-41 0-52 9-103 24-149 5-15 1-31-10-42l-92-93z" horiz-adv-x="1000" />
<glyph glyph-name="glyph-117" unicode="&#xe875;" d="m500 746c-148 0-282-64-375-167l375-667 375 667c-92 103-226 167-375 167z m-208-208c0 46 37 83 83 83s83-37 83-83-37-84-83-84-83 38-83 84z m208-334c-46 0-83 38-83 84s37 83 83 83 83-37 83-83-37-84-83-84z" horiz-adv-x="1000" />
<glyph glyph-name="glyph-118" unicode="&#xe876;" d="m500 496c-92 0-167-75-167-167s75-166 167-166 167 74 167 166-75 167-167 167z m373-125c-20 174-158 312-331 331v86h-84v-86c-173-19-311-157-330-331h-86v-83h86c19-174 157-312 330-331v-86h84v86c173 19 311 157 331 331h85v83h-85z m-373-333c-161 0-292 130-292 291s131 292 292 292 292-131 292-292-131-291-292-291z" horiz-adv-x="1000" />
<glyph glyph-name="glyph-119" unicode="&#xe877;" d="m500 746l-312-763 29-29 283 125 283-125 30 29z" horiz-adv-x="1000" />
<glyph glyph-name="glyph-120" unicode="&#xe878;" d="m750 496c0 138-112 250-250 250s-250-112-250-250c0-188 250-458 250-458s250 270 250 458z m-333 0c0 46 37 83 83 83s83-37 83-83-37-83-83-83-83 37-83 83z m-209-500v-84h584v84h-584z" horiz-adv-x="1000" />
<glyph glyph-name="glyph-121" unicode="&#xe879;" d="m500 746c-161 0-292-131-292-292 0-219 292-542 292-542s292 323 292 542c0 161-131 292-292 292z m0-396c-57 0-104 47-104 104s47 104 104 104 104-46 104-104-46-104-104-104z" horiz-adv-x="1000" />
<glyph glyph-name="glyph-122" unicode="&#xe87a;" d="m833 746h-666c-46 0-83-37-83-83l-1-751 167 167h583c46 0 84 38 84 84v500c0 46-38 83-84 83z m-583-500v103l287 287c8 8 21 8 29 0l74-74c8-8 8-21 0-29l-287-287h-103z m500 0h-312l83 83h229v-83z" horiz-adv-x="1000" />
<glyph glyph-name="glyph-123" unicode="&#xe87b;" d="m338 273l117 118-292 292c-65-65-65-170 0-235l175-175z m282 76c64-30 154-9 220 57 80 80 95 194 34 255-61 61-176 46-255-34-66-66-87-156-58-219-92-93-407-407-407-407l59-59 287 287 287-287 59 59-287 287 61 61z" horiz-adv-x="1000" />
<glyph glyph-name="glyph-124" unicode="&#xe87c;" d="m792 704h-584c-46 0-83-37-83-83v-583c0-47 37-84 83-84h584c46 0 83 37 83 84v583c0 46-37 83-83 83z m-584-83h125c0-69-56-125-125-125v125z m0-292v84c115 0 209 93 209 208h83c0-161-131-292-292-292z m0-250l146 188 104-125 146 187 188-250h-584z" horiz-adv-x="1000" />
<glyph glyph-name="glyph-125" unicode="&#xe87d;" d="m833 663h-666v-84h666v84z m42-417v83l-42 209h-666l-42-209v-83h42v-250h416v250h167v-250h83v250h42z m-375-167h-250v167h250v-167z" horiz-adv-x="1000" />
<glyph glyph-name="glyph-126" unicode="&#xe87e;" d="m583 579l-156-208 119-158-67-50c-70 93-187 250-187 250l-250-334h916l-375 500z" horiz-adv-x="1000" />
<glyph glyph-name="glyph-127" unicode="&#xe87f;" d="m833 413h-125v47c72 19 125 83 125 161h-125v42c0 22-18 41-41 41h-334c-23 0-41-19-41-41v-42h-125c0-78 53-142 125-161v-47h-125c0-78 53-143 125-161v-48h-125c0-77 53-142 125-161v-47c0-23 18-42 41-42h334c23 0 41 19 41 42v47c72 19 125 84 125 161h-125v48c72 18 125 83 125 161z m-333-375c-46 0-83 37-83 83s37 83 83 83 83-37 83-83-37-83-83-83z m0 208c-46 0-83 37-83 83s37 84 83 84 83-38 83-84-37-83-83-83z m0 208c-46 0-83 38-83 84s37 83 83 83 83-37 83-83-37-84-83-84z" horiz-adv-x="1000" />
<glyph glyph-name="glyph-128" unicode="&#xe880;" d="m167 496h166v167h-166v-167z m250-500h166v167h-166v-167z m-250 0h166v167h-166v-167z m0 250h166v167h-166v-167z m250 0h166v167h-166v-167z m250 417v-167h166v167h-166z m-250-167h166v167h-166v-167z m250-250h166v167h-166v-167z m0-250h166v167h-166v-167z" horiz-adv-x="1000" />
<glyph glyph-name="glyph-129" unicode="&#xe881;" d="m792 562l-59 59-233-233-233 233-59-59 233-233-233-232 59-59 233 232 233-232 59 59-233 232z" horiz-adv-x="1000" />
<glyph glyph-name="glyph-130" unicode="&#xe882;" d="m500 496l-250-250 59-59 191 191 191-191 59 59z" horiz-adv-x="1000" />
<glyph glyph-name="glyph-131" unicode="&#xe883;" d="m691 472l-191-192-191 192-59-59 250-250 250 250z" horiz-adv-x="1000" />
<glyph glyph-name="glyph-132" unicode="&#xe884;" d="m292 246h-84v-208h209v83h-125v125z m-84 167h84v125h125v83h-209v-208z m500-292h-125v-83h209v208h-84v-125z m-125 500v-83h125v-125h84v208h-209z" horiz-adv-x="1000" />
<glyph glyph-name="glyph-133" unicode="&#xe885;" d="m208 163h125v-125h84v208h-209v-83z m125 333h-125v-83h209v208h-84v-125z m250-458h84v125h125v83h-209v-208z m84 458v125h-84v-208h209v83h-125z" horiz-adv-x="1000" />
<glyph glyph-name="glyph-134" unicode="&#xe886;" d="m309 55l59-59 132 132 132-132 59 59-191 191-191-191z m382 549l-59 59-132-133-132 133-59-59 191-191 191 191z" horiz-adv-x="1000" />
<glyph glyph-name="glyph-135" unicode="&#xe887;" d="m500 586l132-132 59 59-191 191-191-191 59-59 132 132z m0-514l-132 132-59-59 191-191 191 191-59 59-132-132z" horiz-adv-x="1000" />
<glyph glyph-name="glyph-136" unicode="&#xe888;" d="m833 579h-333l-83 84h-250c-46 0-84-38-84-84v-500c0-46 38-83 84-83h666c46 0 84 37 84 83v417c0 46-38 83-84 83z m-267-500l-149 88-149-88 39 170-132 114 174 15 68 160 67-160 174-15-132-114 40-170z" horiz-adv-x="1000" />
<glyph glyph-name="glyph-137" unicode="&#xe889;" d="m833 746h-666c-46 0-83-37-83-83l-1-751 167 167h583c46 0 84 38 84 84v500c0 46-38 83-84 83z m-625-500l146 187 104-125 146 188 188-250h-584z" horiz-adv-x="1000" />
<glyph glyph-name="glyph-138" unicode="&#xe88a;" d="m917 704h-625c-29 0-52-14-67-36l-225-339 225-338c15-22 41-37 69-37h623c46 0 83 37 83 84v583c0 46-37 83-83 83z m-542-437c-35 0-62 28-62 62s27 63 62 63 63-28 63-63-28-62-63-62z m208 0c-34 0-62 28-62 62s28 63 62 63 63-28 63-63-28-62-63-62z m209 0c-35 0-63 28-63 62s28 63 63 63 62-28 62-63-28-62-62-62z" horiz-adv-x="1000" />
<glyph glyph-name="glyph-139" unicode="&#xe88b;" d="m813 413c7 0 14-2 20-3v378l-791-792h541v125c0 37 16 70 42 93v11c0 103 84 188 188 188z m104-250v62c0 58-47 104-104 104s-105-46-105-104v-62c-23 0-41-19-41-42v-167c0-23 18-42 41-42h209c23 0 41 19 41 42v167c0 23-18 42-41 42z m-42 0h-125v62c0 35 28 63 63 63s62-28 62-63v-62z" horiz-adv-x="1000" />
<glyph glyph-name="glyph-140" unicode="&#xe88c;" d="m613 433l95 96v-158h21l119 119-89 89 89 90-119 119h-21v-159l-95 96-30-29 117-117-117-116 30-30z m137 275l39-39-39-40v79z m0-179l39-39-39-39v78z m83-346c-51 0-101 9-148 24-15 5-31 1-43-10l-91-92c-118 60-215 157-275 274l92 92c11 12 15 28 10 43-15 46-24 97-24 149 0 23-18 41-41 41h-146c-23 0-42-18-42-41 0-392 317-709 708-709 24 0 42 19 42 42v146c0 23-18 41-42 41z" horiz-adv-x="1000" />
<glyph glyph-name="glyph-141" unicode="&#xe88d;" d="m750 371l208 208-208 209v-125h-167v-167h167v-125z m83-188c-51 0-101 9-148 24-15 5-31 1-43-10l-91-92c-118 60-215 157-275 274l92 92c11 12 15 28 10 43-15 47-24 97-24 149 0 23-18 41-41 41h-146c-23 0-42-18-42-41 0-392 317-709 708-709 24 0 42 19 42 42v146c0 23-18 41-42 41z" horiz-adv-x="1000" />
<glyph glyph-name="glyph-142" unicode="&#xe88e;" d="m833 183c-51 0-101 9-148 24-15 5-31 1-43-10l-91-92c-118 60-215 157-275 274l92 92c11 12 15 28 10 43-15 46-24 97-24 149 0 23-18 41-41 41h-146c-23 0-42-18-42-41 0-392 317-709 708-709 24 0 42 19 42 42v146c0 23-18 41-42 41z m-41 146h83c0 207-168 375-375 375v-83c161 0 292-131 292-292z m-167 0h83c0 115-93 209-208 209v-84c69 0 125-56 125-125z" horiz-adv-x="1000" />
<glyph glyph-name="glyph-143" unicode="&#xe88f;" d="m833 183c-51 0-102 9-148 24-15 5-31 1-43-10l-91-92c-118 60-215 157-275 274l92 92c11 12 15 28 10 43-15 46-24 97-24 149 0 23-18 41-41 41h-146c-23 0-42-18-42-41 0-392 317-709 708-709 24 0 42 19 42 42v146c0 23-18 41-42 41z m0 480v20c0 58-46 105-104 105s-104-47-104-105v-20c-23 0-42-19-42-42v-167c0-23 19-41 42-41h208c24 0 42 18 42 41v167c0 23-18 42-42 42z m-33 0h-142v20c0 40 32 71 71 71s71-31 71-71v-20z" horiz-adv-x="1000" />
<glyph glyph-name="glyph-144" unicode="&#xe890;" d="m271 600l229-229 292 292-42 41-250-250-187 188h145v62h-250v-250h63v146z m717-465c-127 120-299 194-488 194s-361-74-488-194c-7-8-12-18-12-30s5-22 12-29l103-104c8-7 18-12 30-12 11 0 22 5 29 12 33 31 71 57 111 77 14 7 24 21 24 38v129c60 19 124 30 191 30s131-11 192-30v-129c0-17 9-31 23-38 41-20 78-46 111-77 8-8 18-12 29-12s22 4 30 12l103 103c7 8 12 18 12 30s-5 22-12 30z" horiz-adv-x="1000" />
<glyph glyph-name="glyph-145" unicode="&#xe891;" d="m708 704h-83v-291h83v291z m125-521c-51 0-101 9-148 24-15 5-31 1-43-10l-91-92c-118 60-215 157-275 274l92 92c11 12 15 28 10 43-15 46-24 97-24 149 0 23-18 41-41 41h-146c-23 0-42-18-42-41 0-392 317-709 708-709 24 0 42 19 42 42v146c0 23-18 41-42 41z m-41 521v-291h83v291h-83z" horiz-adv-x="1000" />
<glyph glyph-name="glyph-146" unicode="&#xe892;" d="m833 579h-166v84l-84 83h-166l-84-83v-84h-166c-46 0-83-37-83-83l-1-458c0-47 38-84 84-84h666c46 0 84 37 84 84v458c0 46-38 83-84 83z m-416 84h166v-84h-166v84z m83-625l-208 208h125v167h166v-167h125l-208-208z" horiz-adv-x="1000" />
<glyph glyph-name="glyph-147" unicode="&#xe893;" d="m83 163v-84c115 0 209-93 209-208h83c0 161-131 292-292 292z m0-167v-125h125c0 69-56 125-125 125z m0 333v-83c207 0 375-168 375-375h84c0 253-205 458-459 458z m625 458l-416 1c-46 0-84-38-84-84v-307c29-7 57-15 84-27v251h416v-542h-126c22-52 35-108 40-167h86c46 0 84 38 84 84v708c0 46-38 83-84 83z" horiz-adv-x="1000" />
<glyph glyph-name="glyph-148" unicode="&#xe894;" d="m788 620c-8 25-31 43-59 43h-458c-27 0-51-18-59-43l-87-249v-333c0-23 19-42 42-42h41c24 0 42 19 42 42v41h500v-41c0-23 19-42 42-42h41c24 0 42 19 42 42v333l-87 249z m-517-416c-35 0-63 28-63 63s28 62 63 62 62-28 62-62-28-63-62-63z m458 0c-34 0-62 28-62 63s28 62 62 62 63-28 63-62-28-63-63-63z m-521 209l63 187h458l63-187h-584z" horiz-adv-x="1000" />
<glyph glyph-name="glyph-149" unicode="&#xe895;" d="m0 204h83v250h-83v-250z m125-83h83v417h-83v-417z m792 333v-250h83v250h-83z m-125-333h83v417h-83v-417z m-104 583h-375c-35 0-63-28-63-62v-625c0-35 28-63 63-63h375c34 0 62 28 62 63v625c0 34-28 62-62 62z m-21-666h-334v583h334v-583z" horiz-adv-x="1000" />
<glyph glyph-name="glyph-150" unicode="&#xe896;" d="m833 746h-666c-46 0-83-37-83-83l-1-751 167 167h583c46 0 84 38 84 84v500c0 46-38 83-84 83z m-83-500l-167 133v-133h-333v333h333v-133l167 133v-333z" horiz-adv-x="1000" />
<glyph glyph-name="glyph-151" unicode="&#xe897;" d="m917 663v20c0 58-47 105-104 105s-105-47-105-105v-20c-23 0-41-19-41-42v-167c0-23 18-41 41-41h209c23 0 41 18 41 41v167c0 23-18 42-41 42z m-34 0h-141v20c0 40 31 71 71 71s70-31 70-71v-20z m-94-334c1-14 3-27 3-41 0-87-34-166-88-225-11 34-42 58-79 58h-42v125c0 23-18 42-41 42h-250v83h83c23 0 42 19 42 42v83h83c46 0 83 37 83 83v106c-39 13-81 19-125 19-230 0-416-186-416-416s186-417 416-417 417 186 417 417c0 14-1 27-2 41h-84z m-372-372c-165 20-292 161-292 331 0 25 3 50 9 74l199-199v-42c0-46 38-83 84-83v-81z" horiz-adv-x="1000" />
<glyph glyph-name="glyph-152" unicode="&#xe898;" d="m500 538c46 0 83 37 83 83 0 16-4 30-11 43l-72 124-71-124c-8-13-12-27-12-43 0-46 37-83 83-83z m375-584v167c0 46-37 83-83 83h-42v125c0 46-37 84-83 84h-125v83h-84v-83h-125c-46 0-83-38-83-84v-125h-42c-46 0-83-37-83-83v-167h-83v-83h916v83h-83z" horiz-adv-x="1000" />
<glyph glyph-name="glyph-153" unicode="&#xe899;" d="m500 538v166h-417v-750h834v584h-417z m-250-500h-83v83h83v-83z m0 166h-83v84h83v-84z m0 167h-83v83h83v-83z m0 167h-83v83h83v-83z m167-500h-84v83h84v-83z m0 166h-84v84h84v-84z m0 167h-84v83h84v-83z m0 167h-84v83h84v-83z m416-500h-333v83h83v83h-83v84h83v83h-83v83h333v-416z m-83 333h-83v-83h83v83z m0-167h-83v-83h83v83z" horiz-adv-x="1000" />
<glyph glyph-name="glyph-154" unicode="&#xe89a;" d="m667 371c69 0 124 56 124 125s-55 125-124 125c-69 0-125-56-125-125s56-125 125-125z m-334 0c69 0 125 56 125 125s-56 125-125 125c-69 0-125-56-125-125s56-125 125-125z m0-83c-97 0-291-49-291-146v-104h583v104c0 97-194 146-292 146z m334 0c-12 0-26-1-40-3 48-35 81-81 81-143v-104h250v104c0 97-194 146-291 146z" horiz-adv-x="1000" />
<glyph glyph-name="glyph-155" unicode="&#xe89b;" d="m333 413h-125v125h-83v-125h-125v-84h125v-125h83v125h125v84z m417-42c69 0 125 56 125 125s-56 125-125 125c-13 0-26-2-38-6 23-34 38-75 38-119s-15-85-38-119c12-4 25-6 38-6z m-208 0c69 0 124 56 124 125s-55 125-124 125c-69 0-125-56-125-125s56-125 125-125z m276-90c34-30 57-69 57-118v-84h125v84c0 64-99 103-182 118z m-276 7c-84 0-250-42-250-125v-84h500v84c0 83-167 125-250 125z" horiz-adv-x="1000" />
<glyph glyph-name="glyph-156" unicode="&#xe89c;" d="m625 371v250l-125 125-125-125v-83h-250v-584h750v417h-250z m-333-333h-84v83h84v-83z m0 166h-84v84h84v-84z m0 167h-84v83h84v-83z m250-333h-84v83h84v-83z m0 166h-84v84h84v-84z m0 167h-84v83h84v-83z m0 167h-84v83h84v-83z m250-500h-84v83h84v-83z m0 166h-84v84h84v-84z" horiz-adv-x="1000" />
<glyph glyph-name="glyph-157" unicode="&#xe89d;" d="m500 746c-230 0-417-187-417-417s187-417 417-417c230 0 417 187 417 417s-187 417-417 417z m0-750c-184 0-333 149-333 333s149 334 333 334 333-150 333-334-149-333-333-333z m146 375c34 0 62 28 62 62s-28 63-62 63-63-28-63-63 28-62 63-62z m-292 0c35 0 63 28 63 62s-28 63-63 63-62-28-62-63 28-62 62-62z m146-271c97 0 179 61 213 146h-426c34-85 116-146 213-146z" horiz-adv-x="1000" />
<glyph glyph-name="glyph-158" unicode="&#xe89e;" d="m500 329c92 0 167 75 167 167 0 92-75 167-167 167s-167-75-167-167c0-92 75-167 167-167z m0-83c-111 0-333-56-333-167v-83h666v83c0 111-222 167-333 167z" horiz-adv-x="1000" />
<glyph glyph-name="glyph-159" unicode="&#xe89f;" d="m625 329c92 0 167 75 167 167 0 92-75 167-167 167s-167-75-167-167c0-92 75-167 167-167z m-375 84v125h-83v-125h-125v-84h125v-125h83v125h125v84h-125z m375-167c-111 0-333-56-333-167v-83h666v83c0 111-222 167-333 167z" horiz-adv-x="1000" />
<glyph glyph-name="glyph-160" unicode="&#xe8a0;" d="m500 583c48 0 88-39 88-87s-40-88-88-88-87 40-87 88 39 87 87 87z m0-375c124 0 254-60 254-87v-46h-508v46c0 27 130 87 254 87z m0 455c-92 0-167-75-167-167 0-92 75-167 167-167s167 75 167 167c0 92-75 167-167 167z m0-375c-111 0-333-56-333-167v-125h666v125c0 111-222 167-333 167z" horiz-adv-x="1000" />
<glyph glyph-name="glyph-161" unicode="&#xe8a1;" d="m417 496h-84v-167h-166v-83h166v-167h84v167h166v83h-166z m187 80v-76l104 21v-442h84v542z" horiz-adv-x="1000" />
<glyph glyph-name="glyph-162" unicode="&#xe8a2;" d="m792 704h-584c-46 0-83-37-83-83v-583c0-47 37-84 83-84h584c46 0 83 37 83 84v583c0 46-37 83-83 83z m-417-583h-83v292h83v-292z m167 0h-84v417h84v-417z m166 0h-83v167h83v-167z" horiz-adv-x="1000" />
<glyph glyph-name="glyph-163" unicode="&#xe8a3;" d="m500 746c-230 0-417-187-417-417s187-417 417-417 417 187 417 417-187 417-417 417z m-42-747c-164 20-291 160-291 330 0 26 3 51 8 75l200-200v-41c0-46 37-84 83-84v-80z m288 105c-11 34-42 59-79 59h-42v125c0 22-19 41-42 41h-250v84h84c23 0 41 18 41 41v84h84c46 0 83 37 83 83v17c122-49 208-169 208-309 0-86-33-165-87-225z" horiz-adv-x="1000" />
<glyph glyph-name="glyph-164" unicode="&#xe8a4;" d="m208 280v-167l292-159 292 159v167l-292-159-292 159z m292 424l-458-250 458-250 375 205v-288h83v333l-458 250z" horiz-adv-x="1000" />
<glyph glyph-name="glyph-165" unicode="&#xe8a5;" d="m750 159c-32 0-60-12-82-32l-297 173c3 9 4 19 4 29s-1 20-4 29l294 172c22-21 52-34 85-34 69 0 125 56 125 125s-56 125-125 125-125-56-125-125c0-10 2-20 4-29l-294-172c-22 21-52 34-85 34-69 0-125-56-125-125s56-125 125-125c33 0 63 13 85 34l297-173c-2-9-3-18-3-27 0-68 54-122 121-122s122 54 122 122-55 121-122 121z" horiz-adv-x="1000" />
<glyph glyph-name="glyph-166" unicode="&#xe8a6;" d="m563 801s30-110 30-200c0-86-56-155-142-155s-151 69-151 155l1 15c-84-100-134-229-134-370 0-184 149-334 333-334s333 150 333 334c0 225-108 425-270 555z m-75-763c-74 0-134 58-134 130 0 68 43 116 117 130s150 51 192 108c16-54 25-111 25-168 0-111-90-200-200-200z" horiz-adv-x="1000" />
<glyph glyph-name="glyph-167" unicode="&#xe8a7;" d="m792 704h-584c-46 0-83-37-83-83v-583c0-46 37-84 83-84h584c46 0 83 38 83 84v583c0 46-37 83-83 83z m-375-583l-209 208 59 59 150-149 316 316 59-59-375-375z" horiz-adv-x="1000" />
<glyph glyph-name="glyph-168" unicode="&#xe8a8;" d="m792 621v-583h-584v583h584z m0 83h-584c-45 0-83-37-83-83v-583c0-46 38-84 83-84h584c46 0 83 38 83 84v583c0 46-37 83-83 83z" horiz-adv-x="1000" />
<glyph glyph-name="glyph-169" unicode="&#xe8a9;" d="m458-171h84v83h-84v-83z m-166 0h83v83h-83v-83z m333 0h83v83h-83v-83z m113 763l-238 237h-42v-316l-191 191-59-59 233-232-233-233 59-59 191 191v-316h42l238 238-179 179 179 179z m-196 78l78-79-78-78v157z m78-436l-78-79v157l78-78z" horiz-adv-x="1000" />
<glyph glyph-name="glyph-170" unicode="&#xe8aa;" d="m292-171h83v83h-83v-83z m166 0h84v83h-84v-83z m167 0h83v83h-83v-83z m42 1000l-334 0c-46 0-83-37-83-83v-667c0-46 37-83 83-83h334c46 0 83 37 83 83v667c0 46-37 83-83 83z m0-666h-334v500h334v-500z" horiz-adv-x="1000" />
<glyph glyph-name="glyph-171" unicode="&#xe8ab;" d="m875 704h-750c-46 0-83-37-83-83v-583c0-47 37-84 83-84h750c46 0 83 37 83 84v583c0 46-37 83-83 83z m0-667h-750v585h750v-585z m-542 126h105l62-63 63 63h104v104l62 62-62 63v104h-104l-63 62-62-62h-105v-104l-62-63 62-62v-104z m167 291c69 0 125-56 125-125s-56-125-125-125v250z" horiz-adv-x="1000" />
<glyph glyph-name="glyph-172" unicode="&#xe8ac;" d="m324 548l-64 53-226-272 226-271 64 53-181 218 181 219z m-32-260h83v83h-83v-83z m416 83h-83v-83h83v83z m-250-83h84v83h-84v-83z m282 313l-64-53 182-219-182-218 64-53 226 271-226 272z" horiz-adv-x="1000" />
<glyph glyph-name="glyph-173" unicode="&#xe8ad;" d="m500 621c-161 0-292-131-292-292h84c0 115 93 209 208 209s208-94 208-209h84c0 161-131 292-292 292z m42-387c36 16 62 53 62 95 0 58-46 104-104 104s-104-46-104-104c0-42 26-79 62-95v-137l-142-143 59-59 125 125 125-125 59 59-142 143v137z m-42 554c-253 0-458-206-458-459h83c0 207 168 375 375 375s375-168 375-375h83c0 253-205 459-458 459z" horiz-adv-x="1000" />
<glyph glyph-name="glyph-174" unicode="&#xe8ae;" d="m208 746c0 23-18 42-41 42s-42-19-42-42v-167h-83v-250h250v250h-84v167z m167-583c0-55 35-101 83-118v-174h84v174c48 18 83 63 83 118v83h-250v-83z m-333 0c0-55 35-101 83-118v-174h83v174c49 18 84 63 84 118v83h-250v-83z m833 416v167c0 23-18 42-42 42s-41-19-41-42v-167h-84v-250h250v250h-83z m-333 167c0 23-19 42-42 42s-42-19-42-42v-167h-83v-250h250v250h-83v167z m166-583c0-55 35-101 84-118v-174h83v174c48 18 83 63 83 118v83h-250v-83z" horiz-adv-x="1000" />
<glyph glyph-name="glyph-175" unicode="&#xe8af;" d="m208 746c0 23-18 42-41 42s-42-19-42-42v-167h-83v-250h250v250h-84v167z m167-583c0-55 35-101 83-118v-174h84v174c48 18 83 63 83 118v83h-250v-83z m-333 0c0-55 35-101 83-118v-174h83v174c49 18 84 63 84 118v83h-250v-83z m833 416v167c0 23-18 42-42 42s-41-19-41-42v-167h-84v-250h250v250h-83z m-333 167c0 23-19 42-42 42s-42-19-42-42v-167h-83v-250h250v250h-83v167z m166-583c0-55 35-101 84-118v-174h83v174c48 18 83 63 83 118v83h-250v-83z" horiz-adv-x="1000" />
<glyph glyph-name="glyph-176" unicode="&#xe8b0;" d="m750 538v125c0 46-37 83-83 83h-334c-46 0-83-37-83-83v-125h-42v-250l125-250v-126h334v126l125 250v250h-42z m-417 125h334v-125h-84v83h-41v-83h-84v83h-41v-83h-84v125z" horiz-adv-x="1000" />
<glyph glyph-name="glyph-177" unicode="&#xe8b1;" d="m333 350c0 35-28 63-62 63s-63-28-63-63 28-62 63-62 62 27 62 62z m292 208c0 35-28 63-62 63h-125c-35 0-63-28-63-63s28-62 63-62h125c34 0 62 28 62 62z m-271-354c-34 0-62-28-62-62s28-63 62-63 63 28 63 63-28 62-63 62z m146 584c-253 0-458-206-458-459s205-458 458-458 458 206 458 458-205 459-458 459z m0-834c-207 0-375 169-375 375s168 375 375 375 375-168 375-375-168-375-375-375z m229 459c-34 0-62-28-62-63s28-62 62-62 63 27 63 62-28 63-63 63z m-83-209c-35 0-63-28-63-62s28-63 63-63 62 28 62 63-28 62-62 62z" horiz-adv-x="1000" />
<glyph glyph-name="glyph-178" unicode="&#xe8b2;" d="m500 600l-83-104h166l-83 104z m250-187v-167l104 83-104 84z m-500 0l-104-84 104-83v167z m333-250h-166l83-105 83 105z m292 541h-750c-46 0-83-37-83-83v-583c0-47 37-84 83-84h750c46 0 83 37 83 84v583c0 46-37 83-83 83z m0-667h-750v585h750v-585z" horiz-adv-x="1000" />
<glyph glyph-name="glyph-179" unicode="&#xe8b3;" d="m542 454h-84v-83h84v83z m166 0h-83v-83h83v83z m125-271c-51 0-101 9-148 24-15 5-31 1-43-10l-91-92c-118 60-215 157-275 274l92 92c11 12 15 28 10 43-15 46-24 97-24 149 0 23-18 41-41 41h-146c-23 0-42-18-42-41 0-392 317-709 708-709 24 0 42 19 42 42v146c0 23-18 41-42 41z m-41 271v-83h83v83h-83z" horiz-adv-x="1000" />
<glyph glyph-name="glyph-180" unicode="&#xe8b4;" d="m292-171h83v83h-83v-83z m166 0h84v83h-84v-83z m84 917h-84v-417h84v417z m148-102l-60-60c72-44 120-123 120-213 0-138-112-250-250-250s-250 112-250 250c0 90 48 169 120 213l-60 60c-87-60-143-160-143-273 0-184 149-333 333-333s333 149 333 333c0 113-56 213-143 273z m-65-815h83v83h-83v-83z" horiz-adv-x="1000" />
<glyph glyph-name="glyph-181" unicode="&#xe8b5;" d="m625 454h-250c-23 0-42-19-42-41v-501c0-22 19-41 42-41h250c23 0 42 19 42 41v501c0 22-19 41-42 41z m-125-250c-46 0-83 38-83 84s37 83 83 83 83-37 83-83-37-84-83-84z m-206 373l59-59c37 38 90 61 147 61s110-23 147-61l59 59c-52 53-125 86-206 86s-153-33-206-86z m206 252c-126 0-241-51-324-134l59-59c68 68 162 110 265 110s197-42 265-110l59 59c-83 83-197 134-324 134z" horiz-adv-x="1000" />
<glyph glyph-name="glyph-182" unicode="&#xe8b6;" d="m292-171h83v83h-83v-83z m208 459c69 0 125 56 125 125l0 250c0 69-56 125-125 125-69 0-125-56-125-125v-250c0-69 56-125 125-125z m-42-459h84v83h-84v-83z m167 0h83v83h-83v-83z m167 584h-71c0-125-106-213-221-213-115 0-221 88-221 213h-71c0-143 114-260 250-280v-137h84v137c136 20 250 137 250 280z" horiz-adv-x="1000" />
<glyph glyph-name="glyph-183" unicode="&#xe8b7;" d="m667 579v84c0 46-38 83-84 83h-166c-46 0-84-37-84-83v-84h-250v-541c0-47 38-84 84-84h666c46 0 84 37 84 84v541h-250z m-250 84h166v-84h-166v84z m-42-584v375l313-166-313-209z" horiz-adv-x="1000" />
<glyph glyph-name="glyph-184" unicode="&#xe8b8;" d="m750 621v83c0 46-37 84-83 84h-167c-46 0-83-38-83-84v-83h-209v-458c0-46 38-84 84-84h583c46 0 83 38 83 84v458h-208z m-250 83h167v-83h-167v83z m0-500v292l229-125-229-167z m-375 250h-83v-458c0-46 37-84 83-84h583c46 0 84 38 84 84h-667v458z" horiz-adv-x="1000" />
<glyph glyph-name="glyph-185" unicode="&#xe8b9;" d="m717 454l-182 273c-8 12-22 18-35 18s-27-6-35-18l-182-273h-200c-23 0-41-19-41-41 0-4 0-8 1-12l106-386c10-35 42-61 80-61h542c38 0 71 26 80 61l106 387c1 3 1 7 1 11 0 22-18 41-41 41h-200z m-342 0l125 184 125-184h-250z m125-333c-46 0-83 37-83 83s37 84 83 84 83-38 83-84-37-83-83-83z" horiz-adv-x="1000" />
<glyph glyph-name="glyph-186" unicode="&#xe8ba;" d="m292 79c-46 0-83-37-83-83s37-84 83-84 83 38 83 84-37 83-83 83z m-250 667v-83h83l150-316-56-103c-7-12-11-25-11-40 0-46 38-83 84-83h500v83h-483c-5 0-10 5-10 11 0 2 0 3 1 5l38 68h310c31 0 59 17 73 42l149 271c3 6 5 13 5 20 0 23-19 42-42 42h-616l-39 83h-136z m666-667c-46 0-83-37-83-83s37-84 83-84 84 38 84 84-38 83-84 83z" horiz-adv-x="1000" />
<glyph glyph-name="glyph-187" unicode="&#xe8bb;" d="m833 746h-666c-46 0-83-37-83-83l-1-751 167 167h583c46 0 84 38 84 84v500c0 46-38 83-84 83z m-500-500h-83v83h83v-83z m0 125h-83v83h83v-83z m0 125h-83v83h83v-83z m292-250h-208v83h208v-83z m125 125h-333v83h333v-83z m0 125h-333v83h333v-83z" horiz-adv-x="1000" />
<glyph glyph-name="glyph-188" unicode="&#xe8bc;" d="m519 163h87l-213 541h-77l-213-541h87l47 125h235l47-125z m-251 208l86 230 86-230h-172z m631-24l-336-337-153 153-59-59 212-212 395 396-59 59z" horiz-adv-x="1000" />
<glyph glyph-name="glyph-189" unicode="&#xe8bd;" d="m500 233l155-112-60 182 155 110h-190l-60 187-60-187h-190l155-110-59-182z" horiz-adv-x="1000" />
<glyph glyph-name="glyph-190" unicode="&#xe8be;" d="m500 746c-230 0-417-187-417-417s187-417 417-417c230 0 417 187 417 417s-187 417-417 417z m176-667l-176 106-176-106 46 201-155 134 205 18 80 189 80-189 205-18-155-134 46-201z" horiz-adv-x="1000" />
<glyph glyph-name="glyph-191" unicode="&#xe8bf;" d="m833 663h-666v-84h666v84z m42-417v83l-42 209h-666l-42-209v-83h42v-250h416v250h167v-250h83v250h42z m-375-167h-250v167h250v-167z" horiz-adv-x="1000" />
<glyph glyph-name="glyph-192" unicode="&#xe8c0;" d="m583 121h-416v-83h416v83z m250 333h-666v-83h666v83z m-666-250h666v84h-666v-84z m0 417v-83h666v83h-666z" horiz-adv-x="1000" />
<glyph glyph-name="glyph-193" unicode="&#xe8c1;" d="m563 267c0-34-28-62-63-62s-62 28-62 62c0 35 28 63 62 63s63-28 63-63z m-63 479c-230 0-417-187-417-417s187-417 417-417 417 187 417 417-187 417-417 417z m0-104c52 0 94-42 94-94s-42-94-94-94-94 42-94 94 42 94 94 94z m208-440v-104c-18-18-40-33-62-44v28c0 14-7 27-19 38-27 26-79 43-127 43-40 0-82-12-110-30l-7-5-9-8c32-19 68-30 106-34l55-6c15-2 28-15 28-31 0-12-7-22-17-28-12-6-27-3-40-3-14 0-28 0-43 2-20 2-41 7-60 13-21 7-41 16-60 27-9 5-18 11-27 18l-13 10c-1 1-11 7-11 10v178c0 66 109 116 208 116s208-50 208-116v-74z" horiz-adv-x="1000" />
<glyph glyph-name="glyph-194" unicode="&#xe8c2;" d="m291 371l-166-167 166-166v125h292v83h-292v125z m584 83l-166 167v-125h-292v-83h292v-125l166 166z" horiz-adv-x="1000" />
<glyph glyph-name="glyph-195" unicode="&#xe8c3;" d="m667 120v293h-84v-293h-125l167-166 167 166h-125z m-292 584l-167-166h125v-292h84v292h125l-167 166z" horiz-adv-x="1000" />
<glyph glyph-name="glyph-196" unicode="&#xe8c4;" d="m500 746c-230 0-417-187-417-417s187-417 417-417 417 187 417 417-187 417-417 417z m-229-292l146 146 146-146h-105v-166h-83v166h-104z m458-250l-146-146-145 146h104v167h83v-167h104z" horiz-adv-x="1000" />
<glyph glyph-name="glyph-197" unicode="&#xe8c5;" d="m500 152l167 167h-125v375h-84v-375h-125l167-167z m375 542h-250v-83h250v-584h-750v584h250v83h-250c-46 0-83-37-83-84v-583c0-46 37-83 83-83h750c46 0 83 37 83 83v583c0 47-37 84-83 84z" horiz-adv-x="1000" />
<glyph glyph-name="glyph-198" unicode="&#xe8c6;" d="m875 704h-750c-46 0-83-37-83-83v-583c0-47 37-84 83-84h750c46 0 83 37 83 84v583c0 46-37 83-83 83z m0-666h-750v583h417v-167h333v-416z" horiz-adv-x="1000" />
<glyph glyph-name="glyph-199" unicode="&#xe8c7;" d="m42 454h83v84h-83v-84z m0-166h83v83h-83v-83z m0 333h83v83c-46 0-83-37-83-83z m333-667h83v84h-83v-84z m-333 167h83v83h-83v-83z m83-167v84h-83c0-47 37-84 83-84z m750 750h-333v-250h416v167c0 46-37 83-83 83z m0-583h83v83h-83v-83z m-500 500h83v83h-83v-83z m-167-667h84v84h-84v-84z m0 667h84v83h-84v-83z m667-667c46 0 83 37 83 84h-83v-84z m0 334h83v83h-83v-83z m-333-334h83v84h-83v-84z m166 0h84v84h-84v-84z" horiz-adv-x="1000" />
<glyph glyph-name="glyph-200" unicode="&#xe8c8;" d="m750 704v-83h-83v83h-334v-83h-83v83h-83v-750h83v84h83v-84h334v84h83v-84h83v750h-83z m-417-583h-83v83h83v-83z m0 167h-83v83h83v-83z m0 166h-83v84h83v-84z m417-333h-83v83h83v-83z m0 167h-83v83h83v-83z m0 166h-83v84h83v-84z" horiz-adv-x="1000" />
<glyph glyph-name="glyph-201" unicode="&#xe8c9;" d="m625 704h-375c-35 0-64-21-77-51l-125-293c-4-10-6-20-6-31v-80l0 0 0-3c0-46 37-83 83-83h263l-40-191c0-4-1-9-1-13 0-17 7-33 18-44l45-44 274 274c15 15 24 36 24 59v417c0 46-37 83-83 83z m167 0v-500h166v500h-166z" horiz-adv-x="1000" />
<glyph glyph-name="glyph-202" unicode="&#xe8ca;" d="m42-46h166v500h-166v-500z m916 459c0 46-37 83-83 83h-263l40 190c1 4 1 9 1 13 0 18-7 33-18 45l-45 44-274-275c-15-15-24-36-24-59v-416c0-47 37-84 83-84h375c35 0 64 21 77 51l125 294c4 9 6 20 6 30v80l0 0 0 4z" horiz-adv-x="1000" />
<glyph glyph-name="glyph-203" unicode="&#xe8cb;" d="m500 579c0 23-19 42-42 42h-216l28 132c1 3 1 7 1 10 0 13-5 25-14 33l-33 33-206-206c-11-11-18-26-18-44v-271c0-34 28-62 63-62h281c26 0 48 16 57 38l95 220c2 8 4 15 4 23v52z m438-166h-282c-26 0-48-16-57-39l-95-220c-2-7-4-15-4-23v-52c0-23 19-41 42-41h216l-28-133c-1-3-1-6-1-10 0-13 5-24 14-33l33-33 206 206c11 11 18 27 18 44v271c0 35-28 63-62 63z" horiz-adv-x="1000" />
<glyph glyph-name="glyph-204" unicode="&#xe8cc;" d="m125 454h583v84h-583v-84z m0-166h583v83h-583v-83z m0-167h583v83h-583v-83z m667 0h83v83h-83v-83z m0 417v-84h83v84h-83z m0-250h83v83h-83v-83z" horiz-adv-x="1000" />
<glyph glyph-name="glyph-205" unicode="&#xe8cd;" d="m792 704h-42v84h-83v-84h-334v84h-83v-84h-42c-46 0-83-37-83-83l0-583c0-47 37-84 83-84h584c46 0 83 37 83 84v583c0 46-37 83-83 83z m0-666h-584v458h584v-458z m-500 375h208v-209h-208z" horiz-adv-x="1000" />
<glyph glyph-name="glyph-206" unicode="&#xe8ce;" d="m795 624l-59-59c60-60 97-144 97-236 0-184-149-333-333-333s-333 149-333 333c0 170 127 310 291 331v-85c-118-19-208-122-208-246 0-138 112-250 250-250s250 112 250 250c0 69-28 132-73 177l-59-59c30-30 49-72 49-118 0-92-75-166-167-166s-167 74-167 166c0 78 54 143 125 161v-89c-24-14-41-41-41-72 0-46 37-83 83-83s83 37 83 83c0 31-16 58-41 72v345h-42c-230 0-417-187-417-417 0-230 187-417 417-417 230 0 417 187 417 417 0 115-47 219-122 295z" horiz-adv-x="1000" />
<glyph glyph-name="glyph-207" unicode="&#xe8cf;" d="m536 201l-106 105 2 1c72 81 124 174 154 272h122v84h-291v83h-84v-83h-291v-83h465c-28-81-72-157-132-224-39 43-71 90-96 140h-84c31-68 73-132 125-190l-212-209 59-59 208 208 130-130 31 85z m235 212h-83l-188-501h83l47 126h198l47-126h83l-187 501z m-109-292l67 181 68-181h-135z" horiz-adv-x="1000" />
<glyph glyph-name="glyph-208" unicode="&#xe8d0;" d="m667 79l95 96-203 203-167-167-309 309 59 59 250-250 167 167 262-262 96 95v-250z" horiz-adv-x="1000" />
<glyph glyph-name="glyph-209" unicode="&#xe8d1;" d="m917 329l-167 167v-125h-625v-83h625v-125z" horiz-adv-x="1000" />
<glyph glyph-name="glyph-210" unicode="&#xe8d2;" d="m667 579l95-95-203-204-167 167-309-309 59-59 250 250 167-166 262 262 96-96v250z" horiz-adv-x="1000" />
<glyph glyph-name="glyph-211" unicode="&#xe8d3;" d="m708 704h-416c-46 0-83-37-83-83l-1-667 292 125 292-125v667c0 46-38 83-84 83z" horiz-adv-x="1000" />
<glyph glyph-name="glyph-212" unicode="&#xe8d4;" d="m708 704h-416c-46 0-83-37-83-83l-1-667 292 125 292-125v667c0 46-38 83-84 83z m0-625l-208 91-208-91v542h416v-542z" horiz-adv-x="1000" />
<glyph glyph-name="glyph-213" unicode="&#xe8d5;" d="m500 788l-375-167v-250c0-232 160-448 375-500 215 52 375 268 375 500v250l-375 167z m-83-667l-167 167 59 59 108-108 274 274 59-59-333-333z" horiz-adv-x="1000" />
<glyph glyph-name="glyph-214" unicode="&#xe8d6;" d="m833 288h-708c-23 0-42-19-42-42v-250c0-23 19-42 42-42h708c23 0 42 19 42 42v250c0 23-19 42-42 42z m0 416h-708c-23 0-42-19-42-41v-250c0-23 19-42 42-42h708c23 0 42 19 42 42v250c0 22-19 41-42 41z" horiz-adv-x="1000" />
<glyph glyph-name="glyph-215" unicode="&#xe8d7;" d="m167 79h125v542h-125v-542z m583 542v-542h125v542h-125z m-417-542h375v542h-375v-542z" horiz-adv-x="1000" />
<glyph glyph-name="glyph-216" unicode="&#xe8d8;" d="m292 38h416v625h-416v-625z m-209 83h167v458h-167v-458z m667 458v-458h167v458h-167z" horiz-adv-x="1000" />
<glyph glyph-name="glyph-217" unicode="&#xe8d9;" d="m417 79h208v542h-208v-542z m-250 0h208v542h-208v-542z m500 542v-542h208v542h-208z" horiz-adv-x="1000" />
<glyph glyph-name="glyph-218" unicode="&#xe8da;" d="m83-46h792v125h-792v-125z m750 542h-708c-23 0-42-19-42-42v-250c0-23 19-41 42-41h708c23 0 42 18 42 41v250c0 23-19 42-42 42z m-750 208v-125h792v125h-792z" horiz-adv-x="1000" />
<glyph glyph-name="glyph-219" unicode="&#xe8db;" d="m167 204h708v84h-708v-84z m0-166h708v83h-708v-83z m0 333h708v83h-708v-83z m0 250v-83h708v83h-708z" horiz-adv-x="1000" />
<glyph glyph-name="glyph-220" unicode="&#xe8dc;" d="m167 246h166v167h-166v-167z m0-208h166v166h-166v-166z m0 416h166v167h-166v-167z m208-208h500v167h-500v-167z m0-208h500v166h-500v-166z m0 583v-167h500v167h-500z" horiz-adv-x="1000" />
<glyph glyph-name="glyph-221" unicode="&#xe8dd;" d="m167 371h208v250h-208v-250z m0-292h208v250h-208v-250z m250 0h208v250h-208v-250z m250 0h208v250h-208v-250z m-250 292h208v250h-208v-250z m250 250v-250h208v250h-208z" horiz-adv-x="1000" />
<glyph glyph-name="glyph-222" unicode="&#xe8de;" d="m417 79h208v250h-208v-250z m-250 0h208v542h-208v-542z m500 0h208v250h-208v-250z m-250 542v-250h458v250h-458z" horiz-adv-x="1000" />
<glyph glyph-name="glyph-223" unicode="&#xe8df;" d="m167 79h708v250h-708v-250z m0 542v-250h708v250h-708z" horiz-adv-x="1000" />
<glyph glyph-name="glyph-224" unicode="&#xe8e0;" d="m250 621h-125c-23 0-42-19-42-42v-500c0-23 19-41 42-41h125c23 0 42 18 42 41v500c0 23-19 42-42 42z m583 0h-125c-23 0-41-19-41-42v-500c0-23 18-41 41-41h125c23 0 42 18 42 41v500c0 23-19 42-42 42z m-291 0h-125c-23 0-42-19-42-42v-500c0-23 19-41 42-41h125c23 0 41 18 41 41v500c0 23-18 42-41 42z" horiz-adv-x="1000" />
<glyph glyph-name="glyph-225" unicode="&#xe8e1;" d="m500 642c-208 0-386-130-458-313 72-183 250-312 458-312 209 0 386 129 458 312-72 183-249 313-458 313z m0-521c-115 0-208 93-208 208s93 209 208 209 208-94 208-209-93-208-208-208z m0 333c-69 0-125-56-125-125s56-125 125-125 125 56 125 125-56 125-125 125z" horiz-adv-x="1000" />
<glyph glyph-name="glyph-226" unicode="&#xe8e2;" d="m500 538c115 0 208-94 208-209 0-27-5-52-14-76l121-122c63 53 113 121 144 198-73 183-250 313-459 313-58 0-114-11-166-29l90-90c24 9 49 15 76 15z m-417 113l114-114c-68-54-123-125-155-208 72-183 250-312 458-312 65 0 126 12 183 35l17-18 122-122 53 53-738 739-54-53z m231-230l64-64c-2-9-3-18-3-28 0-69 56-125 125-125 9 0 18 1 27 3l65-64c-28-14-59-22-92-22-115 0-208 93-208 208 0 33 8 64 22 92z m179 33l131-132 1 7c0 69-56 125-125 125l-7 0z" horiz-adv-x="1000" />
<glyph glyph-name="glyph-227" unicode="&#xe8e3;" d="m833 579h-91c5 13 8 27 8 42 0 69-56 125-125 125-43 0-82-22-104-56l-21-28-21 28c-22 34-60 56-104 56-69 0-125-56-125-125 0-15 3-29 8-42h-91c-46 0-83-37-83-83l-1-458c0-47 38-84 84-84h666c46 0 84 37 84 84v458c0 46-38 83-84 83z m-208 84c23 0 42-19 42-42s-19-42-42-42-42 19-42 42 19 42 42 42z m-250 0c23 0 42-19 42-42s-19-42-42-42-42 19-42 42 19 42 42 42z m458-625h-666v83h666v-83z m0 208h-666v250h211l-86-118 67-49 141 192 42-57 99-135 67 49-86 118h211v-250z" horiz-adv-x="1000" />
<glyph glyph-name="glyph-228" unicode="&#xe8e4;" d="m833 746h-666c-46 0-84-37-84-83v-459c0-46 38-83 84-83h166v-209l167 84 167-84v209h166c46 0 84 37 84 83v459c0 46-38 83-84 83z m0-542h-666v84h666v-84z m0 209h-666v250h666v-250z" horiz-adv-x="1000" />
<glyph glyph-name="glyph-229" unicode="&#xe8e5;" d="m833 579h-125v84c0 46-37 83-83 83h-250c-46 0-83-37-83-83v-84h-125c-46 0-84-37-84-83v-458c0-47 38-84 84-84h666c46 0 84 37 84 84v458c0 46-38 83-84 83z m-458 84h250v-84h-250v84z m458-625h-666v83h666v-83z m0 208h-666v250h125v-83h83v83h250v-83h83v83h125v-250z" horiz-adv-x="1000" />
<glyph glyph-name="glyph-230" unicode="&#xe8e6;" d="m833 579h-166v84c0 46-38 83-84 83h-166c-46 0-84-37-84-83v-84h-166c-46 0-83-37-83-83l-1-458c0-47 38-84 84-84h666c46 0 84 37 84 84v458c0 46-38 83-84 83z m-250 0h-166v84h166v-84z" horiz-adv-x="1000" />
<glyph glyph-name="glyph-231" unicode="&#xe8e7;" d="m500 746c-230 0-417-187-417-417s187-417 417-417 417 187 417 417-187 417-417 417z m42-625h-84v83h84v-83z m0 167h-84v250h84v-250z" horiz-adv-x="1000" />
<glyph glyph-name="glyph-232" unicode="&#xe8e8;" d="m42-46h916l-458 792-458-792z m500 125h-84v84h84v-84z m0 167h-84v167h84v-167z" horiz-adv-x="1000" />
<glyph glyph-name="glyph-233" unicode="&#xe8e9;" d="m500 746c-230 0-417-187-417-417s187-417 417-417 417 187 417 417-187 417-417 417z m0-604c-103 0-187 84-187 187s84 188 187 188 188-84 188-188-84-187-188-187z m0 229c-23 0-42-19-42-42s19-41 42-41 42 18 42 41-19 42-42 42z" horiz-adv-x="1000" />
<glyph glyph-name="glyph-234" unicode="&#xe8ea;" d="m458 121c0-23 19-42 42-42s42 19 42 42-19 42-42 42-42-19-42-42z m0 583v-166h84v80c141-21 250-142 250-289 0-161-131-291-292-291s-292 130-292 291c0 70 25 134 66 185l226-226 59 59-283 283-1-1c-91-68-150-177-150-300 0-207 168-375 375-375s375 168 375 375-168 375-375 375h-42z m292-375c0 23-19 42-42 42s-41-19-41-42 18-41 41-41 42 18 42 41z m-500 0c0-23 19-41 42-41s41 18 41 41-18 42-41 42-42-19-42-42z" horiz-adv-x="1000" />
<glyph glyph-name="glyph-235" unicode="&#xe8eb;" d="m792 663h-584c-46 0-83-38-83-84v-500c0-46 37-83 83-83h584c46 0 83 37 83 83v500c0 46-37 84-83 84z m-334-292h-62v21h-83v-125h83v21h62v-42c0-23-18-42-41-42h-125c-23 0-42 19-42 42v167c0 22 19 41 42 41h125c23 0 41-19 41-41v-42z m292 0h-62v21h-84v-125h84v21h62v-42c0-23-18-42-42-42h-125c-23 0-41 19-41 42v167c0 22 18 41 41 41h125c24 0 42-19 42-41v-42z" horiz-adv-x="1000" />
<glyph glyph-name="glyph-236" unicode="&#xe8ec;" d="m417-4h166v667h-166v-667z m-250 0h166v333h-166v-333z m500 458v-458h166v458h-166z" horiz-adv-x="1000" />
<glyph glyph-name="glyph-237" unicode="&#xe8ed;" d="m792 704h-584c-46 0-83-37-83-83v-583c0-47 37-84 83-84h584c46 0 83 37 83 84v583c0 46-37 83-83 83z m-167-250h-167v-83h167v-83h-167v-84h167v-83h-250v417h250v-84z" horiz-adv-x="1000" />
<glyph glyph-name="glyph-238" unicode="&#xe8ee;" d="m167 79l354 250-354 250v-500z m375 500v-500l354 250-354 250z" horiz-adv-x="1000" />
<glyph glyph-name="glyph-239" unicode="&#xe8ef;" d="m458 79v500l-354-250 354-250z m21 250l354-250v500l-354-250z" horiz-adv-x="1000" />
<glyph glyph-name="glyph-240" unicode="&#xe8f0;" d="m625 517v229h-250v-229l125-125 125 125z m-312-63h-230v-250h230l125 125-125 125z m62-312v-230h250v230l-125 125-125-125z m313 312l-125-125 125-125h229v250h-229z" horiz-adv-x="1000" />
<glyph glyph-name="glyph-241" unicode="&#xe8f1;" d="m708-4c-11 0-23 2-31 6-30 16-51 37-72 100-21 64-61 95-100 125-32 25-67 51-96 105-22 40-34 83-34 122 0 117 92 209 208 209s209-92 209-209h83c0 164-128 292-292 292s-291-128-291-292c0-52 16-110 44-162 38-69 83-104 119-132 34-26 58-44 71-85 25-75 58-118 114-148 22-10 44-15 68-15 92 0 167 75 167 167h-83c0-46-38-83-84-83z m-390 723l-59 59c-83-83-134-197-134-324s51-241 134-324l59 59c-68 68-110 162-110 265s42 198 110 265z m161-265c0-57 47-104 104-104s105 47 105 104-47 104-105 104-104-46-104-104z" horiz-adv-x="1000" />
<glyph glyph-name="glyph-242" unicode="&#xe8f2;" d="m792 663h-584c-46 0-83-38-83-84v-500c0-46 37-83 83-83h584c46 0 83 37 83 83v500c0 46-37 84-83 84z m-334-459h-62v84h-83v-84h-63v250h63v-104h83v104h62v-250z m292 42c0-23-18-42-42-42h-31v-62h-62v62h-32c-23 0-41 19-41 42v167c0 22 18 41 41 41h125c24 0 42-19 42-41v-167z m-146 21h84v125h-84v-125z" horiz-adv-x="1000" />
<glyph glyph-name="glyph-243" unicode="&#xe8f3;" d="m500 663v125l-167-167 167-167v125c138 0 250-112 250-250 0-42-11-82-29-117l61-60c32 51 51 112 51 177 0 184-149 334-333 334z m0-584c-138 0-250 112-250 250 0 43 11 82 29 117l-61 61c-32-52-51-112-51-178 0-184 149-333 333-333v-125l167 167-167 166v-125z" horiz-adv-x="1000" />
<glyph glyph-name="glyph-244" unicode="&#xe8f4;" d="m500 246c69 0 125 56 125 125l0 250c0 69-56 125-125 125-69 0-125-56-125-125v-250c0-69 56-125 125-125z m221 125c0-125-106-213-221-213-115 0-221 88-221 213h-71c0-142 114-260 250-280v-137h84v137c136 20 250 138 250 280h-71z" horiz-adv-x="1000" />
<glyph glyph-name="glyph-245" unicode="&#xe8f5;" d="m500 246c69 0 125 56 125 125l0 250c0 69-56 125-125 125-69 0-125-56-125-125v-250c0-69 56-125 125-125z m-50 379c0 28 23 50 50 50s50-22 50-50l0-258c0-28-23-50-50-50-27 0-50 22-50 50v258z m271-254c0-125-106-213-221-213-115 0-221 88-221 213h-71c0-142 114-260 250-280v-137h84v137c136 20 250 138 250 280h-71z" horiz-adv-x="1000" />
<glyph glyph-name="glyph-246" unicode="&#xe8f6;" d="m792 371h-71c0-31-7-60-18-86l51-51c24 41 38 87 38 137z m-168-7c0 2 1 5 1 7v250c0 69-56 125-125 125s-125-56-125-125v-8l249-249z m-446 340l-53-53 250-250v-30c0-69 56-125 125-125 9 0 18 1 27 3l69-69c-29-14-62-22-96-22-115 0-221 88-221 213h-71c0-143 114-260 250-280v-137h84v137c37 6 73 19 106 38l174-175 53 53-697 697z" horiz-adv-x="1000" />
<glyph glyph-name="glyph-247" unicode="&#xe8f7;" d="m750 663l83-167h-125l-83 167h-83l83-167h-125l-83 167h-84l84-167h-125l-84 167h-41c-46 0-83-38-83-84l-1-500c0-46 38-83 84-83h666c46 0 84 37 84 83v584h-167z" horiz-adv-x="1000" />
<glyph glyph-name="glyph-248" unicode="&#xe8f8;" d="m167 579h-84v-583c0-46 38-84 84-84h583v84h-583v583z m666 167h-500c-46 0-83-37-83-83v-500c0-46 37-84 83-84h500c46 0 84 38 84 84v500c0 46-38 83-84 83z m-41-375h-167v-167h-83v167h-167v83h167v167h83v-167h167v-83z" horiz-adv-x="1000" />
<glyph glyph-name="glyph-249" unicode="&#xe8f9;" d="m167 579h-84v-583c0-46 38-84 84-84h583v84h-583v583z m666 167h-500c-46 0-83-37-83-83v-500c0-46 37-84 83-84h500c46 0 84 38 84 84v500c0 46-38 83-84 83z m-41-375h-417v83h417v-83z m-167-167h-250v84h250v-84z m167 334h-417v83h417v-83z" horiz-adv-x="1000" />
<glyph glyph-name="glyph-250" unicode="&#xe8fa;" d="m833 746h-500c-46 0-83-37-83-83v-500c0-46 37-84 83-84h500c46 0 84 38 84 84v500c0 46-38 83-84 83z m-83-208h-125v-230c0-57-47-104-104-104s-104 47-104 104 46 105 104 105c23 0 45-9 62-22v230h167v-83z m-583 41h-84v-583c0-46 38-84 84-84h583v84h-583v583z" horiz-adv-x="1000" />
<glyph glyph-name="glyph-251" unicode="&#xe8fb;" d="m958 329l-101 116 14 154-151 34-78 132-142-61-142 61-78-132-151-34 14-154-101-116 101-116-14-153 151-34 78-133 142 61 142-61 78 133 151 34-14 153 101 116z m-416-208h-84v83h84v-83z m0 167h-84v250h84v-250z" horiz-adv-x="1000" />
<glyph glyph-name="glyph-252" unicode="&#xe8fc;" d="m500 746c-230 0-417-187-417-417s187-417 417-417 417 187 417 417-187 417-417 417z m0-750c-184 0-333 149-333 333 0 77 26 148 70 204l467-467c-56-44-127-70-204-70z m263 129l-467 467c56 44 127 71 204 71 184 0 333-150 333-334 0-77-26-147-70-204z" horiz-adv-x="1000" />
<glyph glyph-name="glyph-253" unicode="&#xe8fd;" d="m250 38h167v583h-167v-583z m333 583v-583h167v583h-167z" horiz-adv-x="1000" />
<glyph glyph-name="glyph-254" unicode="&#xe8fe;" d="m500 746c-230 0-417-187-417-417s187-417 417-417 417 187 417 417-187 417-417 417z m-42-583h-83v333h83v-333z m167 0h-83v333h83v-333z" horiz-adv-x="1000" />
<glyph glyph-name="glyph-255" unicode="&#xe8ff;" d="m375 163h83v333h-83v-333z m125 583c-230 0-417-187-417-417s187-417 417-417 417 187 417 417-187 417-417 417z m0-750c-184 0-333 149-333 333s149 334 333 334 333-150 333-334-149-333-333-333z m42 167h83v333h-83v-333z" horiz-adv-x="1000" />
<glyph glyph-name="glyph-256" unicode="&#xe900;" d="m333 621v-583l459 291z" horiz-adv-x="1000" />
<glyph glyph-name="glyph-257" unicode="&#xe901;" d="m500 746c-230 0-417-187-417-417s187-417 417-417 417 187 417 417-187 417-417 417z m-83-604v375l250-188-250-187z" horiz-adv-x="1000" />
<glyph glyph-name="glyph-258" unicode="&#xe902;" d="m417 142l250 187-250 188v-375z m83 604c-230 0-417-187-417-417s187-417 417-417 417 187 417 417-187 417-417 417z m0-750c-184 0-333 149-333 333s149 334 333 334 333-150 333-334-149-333-333-333z" horiz-adv-x="1000" />
<glyph glyph-name="glyph-259" unicode="&#xe903;" d="m667 579v84c0 46-38 83-84 83h-166c-46 0-84-37-84-83v-84h-250v-541c0-47 38-84 84-84h666c46 0 84 37 84 84v541h-250z m-250 84h166v-84h-166v84z m-42-584v375l313-166-313-209z" horiz-adv-x="1000" />
<glyph glyph-name="glyph-260" unicode="&#xe904;" d="m583 413h-500v-84h500v84z m0 166h-500v-83h500v83z m167-333v167h-83v-167h-167v-83h167v-167h83v167h167v83h-167z m-667-83h334v83h-334v-83z" horiz-adv-x="1000" />
<glyph glyph-name="glyph-261" unicode="&#xe905;" d="m167 579h-84v-583c0-46 38-84 84-84h583v84h-583v583z m666 167h-500c-46 0-83-37-83-83v-500c0-46 37-84 83-84h500c46 0 84 38 84 84v500c0 46-38 83-84 83z m-41-375h-167v-167h-83v167h-167v83h167v167h83v-167h167v-83z" horiz-adv-x="1000" />
<glyph glyph-name="glyph-262" unicode="&#xe906;" d="m625 579h-500v-83h500v83z m0-166h-500v-84h500v84z m-500-250h333v83h-333v-83z m583 416v-341c-13 5-26 8-41 8-69 0-125-56-125-125s56-125 125-125 125 56 125 125v375h125v83h-209z" horiz-adv-x="1000" />
<glyph glyph-name="glyph-263" unicode="&#xe907;" d="m135 573c-30-12-52-42-52-77v-500c0-46 38-84 84-84h666c46 0 84 38 84 84v500c0 46-38 83-84 83h-487l344 139-28 70-527-215z m157-577c-69 0-125 56-125 125s56 125 125 125 125-56 125-125-56-125-125-125z m541 333h-83v84h-83v-84h-500v167h666v-167z" horiz-adv-x="1000" />
<glyph glyph-name="glyph-264" unicode="&#xe908;" d="m875 621v-583h83v583h-83z m-167-583h84v583h-84v-583z m-125 583h-500c-23 0-41-19-41-42v-500c0-23 18-41 41-41h500c23 0 42 18 42 41v500c0 23-19 42-42 42z m-250-115c52 0 94-42 94-93 0-52-42-94-94-94s-93 42-93 94c0 51 42 93 93 93z m188-385h-375v31c0 63 125 94 187 94s188-31 188-94v-31z" horiz-adv-x="1000" />
<glyph glyph-name="glyph-265" unicode="&#xe909;" d="m292 538h416v-125l167 166-167 167v-125h-500v-250h84v167z m416-417h-416v125l-167-167 167-167v126h500v250h-84v-167z" horiz-adv-x="1000" />
<glyph glyph-name="glyph-266" unicode="&#xe90a;" d="m292 538h416v-125l167 166-167 167v-125h-500v-250h84v167z m416-417h-416v125l-167-167 167-167v126h500v250h-84v-167z m-166 83v250h-42l-83-41v-42h62v-167h63z" horiz-adv-x="1000" />
<glyph glyph-name="glyph-267" unicode="&#xe90b;" d="m500 621v167l-208-209 208-208v167c138 0 250-112 250-250s-112-250-250-250-250 111-250 250h-83c0-185 149-334 333-334s333 149 333 334-149 333-333 333z" horiz-adv-x="1000" />
<glyph glyph-name="glyph-268" unicode="&#xe90c;" d="m441 447l-215 216-59-59 215-216 59 59z m163 216l85-86-522-522 59-59 522 523 85-86v230h-229z m14-393l-59-59 130-130-85-85h229v229l-85-85-130 130z" horiz-adv-x="1000" />
<glyph glyph-name="glyph-269" unicode="&#xe90d;" d="m250 79l354 250-354 250v-500z m417 500v-500h83v500h-83z" horiz-adv-x="1000" />
<glyph glyph-name="glyph-270" unicode="&#xe90e;" d="m250 579h83v-500h-83z m146-250l354-250v500z" horiz-adv-x="1000" />
<glyph glyph-name="glyph-271" unicode="&#xe90f;" d="m328 688l-53 64-192-161 54-64 191 161z m589-97l-192 161-53-64 191-161 54 64z m-417 72c-207 0-375-168-375-375s168-376 375-376 375 168 375 376-168 375-375 375z m0-667c-161 0-292 131-292 292s131 291 292 291 292-130 292-291-131-292-292-292z m-125 375h151l-151-175v-75h250v83h-151l151 175v75h-250v-83z" horiz-adv-x="1000" />
<glyph glyph-name="glyph-272" unicode="&#xe910;" d="m250 579h500v-500h-500z" horiz-adv-x="1000" />
<glyph glyph-name="glyph-273" unicode="&#xe911;" d="m833 663h-666c-46 0-84-38-84-84v-500c0-46 38-83 84-83h666c46 0 84 37 84 83v500c0 46-38 84-84 84z m-666-334h166v-83h-166v83z m416-250h-416v84h416v-84z m250 0h-166v84h166v-84z m0 167h-416v83h416v-83z" horiz-adv-x="1000" />
<glyph glyph-name="glyph-274" unicode="&#xe912;" d="m833 663h-666c-46 0-84-38-84-84v-500c0-46 38-83 84-83h666c46 0 84 37 84 83v500c0 46-38 84-84 84z m-510-511l-59-59c-65 66-97 151-97 236s32 171 97 236l59-59c-48-49-73-113-73-177s24-128 73-177z m177 11c-92 0-167 74-167 166s75 167 167 167 167-75 167-167-75-166-167-166z m236-69l-59 59c49 48 73 112 73 176s-25 128-73 177l59 59c65-65 97-150 97-236s-32-170-97-235z m-236 319c-46 0-83-38-83-84s37-83 83-83 83 37 83 83-37 84-83 84z" horiz-adv-x="1000" />
<glyph glyph-name="glyph-275" unicode="&#xe913;" d="m167 579h-84v-583c0-46 38-84 84-84h583v84h-583v583z m666 167h-500c-46 0-83-37-83-83v-500c0-46 37-84 83-84h500c46 0 84 38 84 84v500c0 46-38 83-84 83z m-333-521v375l250-187-250-188z" horiz-adv-x="1000" />
<glyph glyph-name="glyph-276" unicode="&#xe914;" d="m708 392v146c0 22-18 41-41 41h-500c-23 0-42-19-42-41v-417c0-23 19-42 42-42h500c23 0 41 19 41 42v146l167-167v458l-167-166z" horiz-adv-x="1000" />
<glyph glyph-name="glyph-277" unicode="&#xe915;" d="m875 558l-167-166v146c0 22-18 41-41 41h-258l466-466v445z m-738 188l-54-53 114-114h-30c-23 0-42-19-42-41v-417c0-23 19-42 42-42h500c8 0 16 3 22 8l133-133 53 53-738 739z" horiz-adv-x="1000" />
<glyph glyph-name="glyph-278" unicode="&#xe916;" d="m771 329c0 74-43 137-104 168v-335c61 30 104 93 104 167z m-563 125v-250h167l208-208v667l-208-209h-167z" horiz-adv-x="1000" />
<glyph glyph-name="glyph-279" unicode="&#xe917;" d="m292 454v-250h166l209-208v667l-209-209h-166z" horiz-adv-x="1000" />
<glyph glyph-name="glyph-280" unicode="&#xe918;" d="m688 329c0 74-43 137-105 168v-92l103-102c1 8 2 17 2 26z m104 0c0-39-9-76-23-110l63-63c27 52 43 111 43 173 0 179-125 328-292 366v-86c121-36 209-148 209-280z m-614 375l-53-53 197-197h-197v-250h167l208-208v280l177-177c-28-22-59-39-94-49v-87c58 14 110 40 154 76l85-85 53 53-697 697z m322-41l-87-88 87-87v175z" horiz-adv-x="1000" />
<glyph glyph-name="glyph-281" unicode="&#xe919;" d="m125 454v-250h167l208-208v667l-208-209h-167z m563-125c0 74-43 137-105 168v-335c62 30 105 93 105 167z m-105 366v-86c121-36 209-148 209-280s-88-244-209-279v-86c167 38 292 187 292 365s-125 328-292 366z" horiz-adv-x="1000" />
<glyph glyph-name="glyph-282" unicode="&#xe91a;" d="m833 663h-666c-46 0-83-38-83-84l-1-500c0-46 38-83 84-83h666c46 0 84 37 84 83v500c0 46-38 84-84 84z m-208-584h-458v167h458v-167z m0 209h-458v166h458v-166z m208-209h-166v375h166v-375z" horiz-adv-x="1000" />
<glyph glyph-name="glyph-283" unicode="&#xe91b;" d="m500 538v166h-417v-750h834v584h-417z m-250-500h-83v83h83v-83z m0 166h-83v84h83v-84z m0 167h-83v83h83v-83z m0 167h-83v83h83v-83z m167-500h-84v83h84v-83z m0 166h-84v84h84v-84z m0 167h-84v83h84v-83z m0 167h-84v83h84v-83z m416-500h-333v83h83v83h-83v84h83v83h-83v83h333v-416z m-83 333h-83v-83h83v83z m0-167h-83v-83h83v83z" horiz-adv-x="1000" />
<glyph glyph-name="glyph-284" unicode="&#xe91c;" d="m276 379c60-117 157-214 275-274l91 92c12 11 28 15 43 10 46-15 97-24 148-24 24 0 42-18 42-41v-146c0-23-18-42-42-42-391 0-708 317-708 709 0 23 19 41 42 41h146c23 0 41-18 41-41 0-52 9-103 24-149 5-15 1-31-10-42l-92-93z" horiz-adv-x="1000" />
<glyph glyph-name="glyph-285" unicode="&#xe91d;" d="m500 454c-67 0-131-10-192-30v-129c0-17-9-31-23-38-41-20-78-46-111-77-7-7-18-12-29-12s-22 5-30 13l-103 103c-7 8-12 18-12 29s5 22 12 30c127 121 299 195 488 195s361-74 488-195c7-8 12-18 12-30s-5-21-12-29l-103-103c-8-8-18-12-30-12-11 0-21 4-29 11-33 31-70 57-111 78-14 6-23 21-23 37v129c-61 20-125 30-192 30z" horiz-adv-x="1000" />
<glyph glyph-name="glyph-286" unicode="&#xe91e;" d="m375 621v-83h274l-482-483 59-59 482 483v-275h84v417z" horiz-adv-x="1000" />
<glyph glyph-name="glyph-287" unicode="&#xe91f;" d="m708-22l59 60-142 142-59-59 142-143z m-395 518h145v-233l-225-225 59-60 250 251v267h146l-188 187-187-187z" horiz-adv-x="1000" />
<glyph glyph-name="glyph-288" unicode="&#xe920;" d="m816 538l-316-316-233 232h191v84h-333v-334h83v191l292-291 375 375z" horiz-adv-x="1000" />
<glyph glyph-name="glyph-289" unicode="&#xe921;" d="m833 604l-59 59-482-483v274h-84v-416h417v83h-274z" horiz-adv-x="1000" />
<glyph glyph-name="glyph-290" unicode="&#xe922;" d="m583 663l96-96-120-120 59-59 120 120 95-95v250z m-166 0h-250v-250l95 95 196-196v-316h84v351l-221 220z" horiz-adv-x="1000" />
<glyph glyph-name="glyph-291" unicode="&#xe923;" d="m833 746h-666c-46 0-83-37-83-83l-1-751 167 167h583c46 0 84 38 84 84v500c0 46-38 83-84 83z m-583-292h500v-83h-500v83z m333-208h-333v83h333v-83z m167 250h-500v83h500v-83z" horiz-adv-x="1000" />
<glyph glyph-name="glyph-292" unicode="&#xe924;" d="m208 288h584v83h-584v-83z m-83-167h583v83h-583v-83z m167 417v-84h583v84h-583z" horiz-adv-x="1000" />
<glyph glyph-name="glyph-293" unicode="&#xe925;" d="m916 663c0 46-37 83-83 83h-666c-46 0-84-37-84-83v-500c0-46 38-84 84-84h583l167-167-1 751z m-166-417h-500v83h500v-83z m0 125h-500v83h500v-83z m0 125h-500v83h500v-83z" horiz-adv-x="1000" />
<glyph glyph-name="glyph-294" unicode="&#xe926;" d="m833 829h-666v-83h666v83z m-666-1000h666v83h-666v-83z m666 834h-666c-46 0-84-38-84-84v-500c0-46 38-83 84-83h666c46 0 84 37 84 83v500c0 46-38 84-84 84z m-333-115c52 0 94-42 94-94 0-52-42-94-94-94s-94 42-94 94c0 52 42 94 94 94z m208-427h-416v62c0 70 139 105 208 105s208-35 208-105v-62z" horiz-adv-x="1000" />
<glyph glyph-name="glyph-295" unicode="&#xe927;" d="m708 704h-41v-208h41v208z m-83-83h-83v42h83v41h-125v-125h83v-41h-83v-42h125v125z m125 83v-208h42v83h83v125h-125z m83-83h-41v42h41v-42z m0-438c-51 0-101 9-148 24-15 5-31 1-43-10l-91-92c-118 60-215 157-275 274l92 92c11 12 15 28 10 43-15 46-24 97-24 149 0 23-18 41-41 41h-146c-23 0-42-18-42-41 0-392 317-709 708-709 24 0 42 19 42 42v146c0 23-18 41-42 41z" horiz-adv-x="1000" />
<glyph glyph-name="glyph-296" unicode="&#xe928;" d="m500 38c-46 0-83-38-83-84s37-83 83-83 83 37 83 83-37 84-83 84z m-250 750c-46 0-83-38-83-84s37-83 83-83 83 37 83 83-37 84-83 84z m0-250c-46 0-83-38-83-84s37-83 83-83 83 37 83 83-37 84-83 84z m0-250c-46 0-83-38-83-84s37-83 83-83 83 37 83 83-37 84-83 84z m500 333c46 0 83 37 83 83s-37 84-83 84-83-38-83-84 37-83 83-83z m-250-333c-46 0-83-38-83-84s37-83 83-83 83 37 83 83-37 84-83 84z m250 0c-46 0-83-38-83-84s37-83 83-83 83 37 83 83-37 84-83 84z m0 250c-46 0-83-38-83-84s37-83 83-83 83 37 83 83-37 84-83 84z m-250 0c-46 0-83-38-83-84s37-83 83-83 83 37 83 83-37 84-83 84z m0 250c-46 0-83-38-83-84s37-83 83-83 83 37 83 83-37 84-83 84z" horiz-adv-x="1000" />
<glyph glyph-name="glyph-297" unicode="&#xe929;" d="m500 746c-230 0-417-187-417-417s187-417 417-417 417 187 417 417-187 417-417 417z m0-750c-184 0-333 149-333 333 0 77 26 148 70 204l467-467c-56-44-127-70-204-70z m263 129l-467 467c56 44 127 71 204 71 184 0 333-150 333-334 0-77-26-147-70-204z" horiz-adv-x="1000" />
<glyph glyph-name="glyph-298" unicode="&#xe92a;" d="m833 663h-666c-46 0-83-38-83-84l-1-500c0-46 38-83 84-83h666c46 0 84 37 84 83v500c0 46-38 84-84 84z m0-167l-333-208-333 208v83l333-208 333 208v-83z" horiz-adv-x="1000" />
<glyph glyph-name="glyph-299" unicode="&#xe92b;" d="m875 579h-83v-375h-542v-83c0-23 19-42 42-42h458l167-167v626c0 22-19 41-42 41z m-167-250v375c0 23-18 42-41 42h-542c-23 0-42-19-42-42v-583l167 167h417c23 0 41 18 41 41z" horiz-adv-x="1000" />
<glyph glyph-name="glyph-300" unicode="&#xe92c;" d="m375 704l-167-166h125v-292h84v292h125l-167 166z m292-584v293h-84v-293h-125l167-166 167 166h-125z" horiz-adv-x="1000" />
<glyph glyph-name="glyph-301" unicode="&#xe92d;" d="m860-41l-682 683-53-53 116-116c-106-131-98-324 23-446 65-65 151-97 236-97 74 0 149 24 209 74l113-112 53 53-15 14z m-360 54c-67 0-130 26-177 73-47 48-73 110-73 177 0 55 18 107 50 150l200-199v-201z m0 604v-191l302-302c57 123 35 273-66 375l-236 236-154-155 59-59 95 96z" horiz-adv-x="1000" />
<glyph glyph-name="glyph-302" unicode="&#xe92e;" d="m736 499l-236 236-236-236c-130-130-130-341 0-472 65-65 151-97 236-97s171 32 236 97c130 131 130 342 0 472z m-236-486c-67 0-130 26-177 74-47 47-73 109-73 176s26 130 73 177l177 177v-604z" horiz-adv-x="1000" />
<glyph glyph-name="glyph-303" unicode="&#xe92f;" d="m792 746h-584c-46 0-83-37-83-83v-584c0-46 37-83 83-83h167l125-125 125 125h167c46 0 83 37 83 83v584c0 46-37 83-83 83z m-250-667h-84v84h84v-84z m86 323l-38-38c-30-30-48-56-48-118h-84v21c0 46 19 87 49 118l52 52c15 15 24 36 24 59 0 46-37 83-83 83s-83-37-83-83h-84c0 92 75 167 167 167s167-75 167-167c0-37-15-70-39-94z" horiz-adv-x="1000" />
<glyph glyph-name="glyph-304" unicode="&#xe930;" d="m500 558c58 0 104-46 104-104 0-30-13-58-34-77l151-151c41 77 71 158 71 228 0 161-131 292-292 292-82 0-157-34-210-89l133-133c19 21 46 34 77 34z m182-400l-546 546-53-53 133-132c-5-21-8-42-8-65 0-219 292-542 292-542s70 78 141 182l139-140 53 53-151 151z" horiz-adv-x="1000" />
<glyph glyph-name="glyph-305" unicode="&#xe931;" d="m500 746c-161 0-292-131-292-292 0-219 292-542 292-542s292 323 292 542c0 161-131 292-292 292z m0-396c-57 0-104 47-104 104s47 104 104 104 104-46 104-104-46-104-104-104z" horiz-adv-x="1000" />
<glyph glyph-name="glyph-306" unicode="&#xe932;" d="m833 746h-666c-46 0-83-37-83-83l-1-751 167 167h583c46 0 84 38 84 84v500c0 46-38 83-84 83z m-83-500h-500v83h500v-83z m0 125h-500v83h500v-83z m0 125h-500v83h500v-83z" horiz-adv-x="1000" />
<glyph glyph-name="glyph-307" unicode="&#xe933;" d="m833 746h-666c-46 0-84-37-84-83v-751l167 167h583c46 0 84 38 84 84v500c0 46-38 83-84 83z" horiz-adv-x="1000" />
<glyph glyph-name="glyph-308" unicode="&#xe934;" d="m791 621c0 46-37 83-83 83h-291l-98-97 473-473-1 487z m-639 47l-53-53 109-110v-467c0-47 38-84 84-84h417c14 0 28 4 40 11l78-79 53 54-728 728z" horiz-adv-x="1000" />
<glyph glyph-name="glyph-309" unicode="&#xe935;" d="m276 379c60-117 157-214 275-274l91 92c12 11 28 15 43 10 46-15 97-24 148-24 24 0 42-18 42-41v-146c0-23-18-42-42-42-391 0-708 317-708 709 0 23 19 41 42 41h146c23 0 41-18 41-41 0-52 9-103 24-149 5-15 1-31-10-42l-92-93z" horiz-adv-x="1000" />
<glyph glyph-name="glyph-310" unicode="&#xe936;" d="m732 236c11 29 18 60 18 93 0 138-112 250-250 250-33 0-65-6-93-18l67-68c9 2 17 3 26 3 92 0 167-75 167-167 0-9-1-17-3-26l68-67z m-232 427c184 0 333-150 333-334 0-56-14-109-39-155l61-62c39 63 62 138 62 217 0 230-187 417-417 417-80 0-154-23-217-62l61-60c46 24 100 39 156 39z m-364 62l-53-53 88-88c-55-70-88-159-88-255 0-154 84-288 209-360l41 72c-99 58-166 165-166 288 0 73 23 141 63 196l60-60c-25-39-40-86-40-136 0-92 50-173 125-216l42 72c-50 29-84 83-84 144 0 27 7 52 19 75l66-66-1-9c0-46 37-83 83-83l9 1 313-314 53 53-739 739z" horiz-adv-x="1000" />
<glyph glyph-name="glyph-311" unicode="&#xe937;" d="m917 704h-834c-46 0-83-37-83-83v-583c0-47 37-84 83-84h834c46 0 83 37 83 84l0 583c0 46-37 83-83 83z m-584-125c69 0 125-56 125-125 0-69-56-125-125-125s-125 56-125 125c0 69 56 125 125 125z m250-500h-500v42c0 83 167 129 250 129s250-46 250-129v-42z m161 167h68l63-83-83-84c-54 41-95 99-114 167-7 27-11 54-11 83s4 57 11 84c19 67 60 125 114 166l83-83-63-83h-68c-9-26-15-55-15-84s5-57 15-83z" horiz-adv-x="1000" />
<glyph glyph-name="glyph-312" unicode="&#xe938;" d="m875 496v42l-125-84-125 84v-42l125-83 125 83z m42 208h-834c-46 0-83-37-83-83v-583c0-47 37-84 83-84h834c46 0 83 37 83 84l0 583c0 46-37 83-83 83z m-584-125c69 0 125-56 125-125 0-69-56-125-125-125s-125 56-125 125c0 69 56 125 125 125z m250-500h-500v42c0 83 167 129 250 129s250-46 250-129v-42z m334 250h-334v250h334v-250z" horiz-adv-x="1000" />
<glyph glyph-name="glyph-313" unicode="&#xe939;" d="m988 135c-127 120-299 194-488 194s-361-74-488-194c-7-8-12-18-12-30s5-22 12-29l103-104c8-7 18-12 30-12 11 0 22 5 29 12 33 31 70 57 111 77 14 7 23 21 23 38v129c61 19 125 30 192 30s131-11 192-30v-129c0-17 9-31 23-38 41-20 78-46 111-77 8-7 18-12 29-12s22 5 30 12l103 103c7 8 12 18 12 30 0 12-5 22-12 30z m-106 434l-59 59-149-149 59-59s144 147 149 149z m-340 177h-84v-208h84v208z m-275-326l59 59-149 149-59-59c5-2 149-149 149-149z" horiz-adv-x="1000" />
<glyph glyph-name="glyph-314" unicode="&#xe93a;" d="m42 538l0-417c0-46 37-83 83-83h750c46 0 83 37 83 83v417c0 46-37 83-83 83h-750c-46 0-83-37-83-83z m750 0v-417h-584v417h584z" horiz-adv-x="1000" />
<glyph glyph-name="glyph-315" unicode="&#xe93b;" d="m708 787l-416 1c-46 0-83-38-83-84v-750c0-46 37-83 83-83h416c46 0 84 37 84 83v750c0 46-38 83-84 83z m0-749h-416v583h416v-583z" horiz-adv-x="1000" />
<glyph glyph-name="glyph-316" unicode="&#xe93c;" d="m42 538l0-417c0-46 37-83 83-83h750c46 0 83 37 83 83v417c0 46-37 83-83 83h-750c-46 0-83-37-83-83z m750 0v-417h-584v417h584z" horiz-adv-x="1000" />
<glyph glyph-name="glyph-317" unicode="&#xe93d;" d="m708 787l-416 1c-46 0-83-38-83-84v-750c0-46 37-83 83-83h416c46 0 84 37 84 83v750c0 46-38 83-84 83z m0-749h-416v583h416v-583z" horiz-adv-x="1000" />
<glyph glyph-name="glyph-318" unicode="&#xe93e;" d="m750 663l-167-167h125v-292c0-46-37-83-83-83s-83 37-83 83v292c0 92-75 167-167 167s-167-75-167-167v-292h-125l167-166 167 166h-125v292c0 46 37 83 83 83s83-37 83-83v-292c0-92 75-166 167-166s167 74 167 166v292h125l-167 167z" horiz-adv-x="1000" />
<glyph glyph-name="glyph-319" unicode="&#xe93f;" d="m833 746h-666c-46 0-83-37-83-83l-1-751 167 167h583c46 0 84 38 84 84v500c0 46-38 83-84 83z m-458-375h-83v83h83v-83z m167 0h-84v83h84v-83z m166 0h-83v83h83v-83z" horiz-adv-x="1000" />
<glyph glyph-name="glyph-320" unicode="&#xe940;" d="m771 579c-127 0-229-102-229-229 0-55 19-106 52-146h-188c33 40 52 91 52 146 0 127-102 229-229 229s-229-102-229-229 103-229 229-229h542c127 0 229 102 229 229s-102 229-229 229z m-542-375c-80 0-146 65-146 146s66 146 146 146 146-65 146-146-65-146-146-146z m542 0c-81 0-146 65-146 146s65 146 146 146 146-65 146-146-65-146-146-146z" horiz-adv-x="1000" />
<glyph glyph-name="glyph-321" unicode="&#xe941;" d="m527 413c-34 97-127 166-235 166-138 0-250-112-250-250s112-250 250-250c108 0 201 70 235 167h181v-167h167v167h83v167h-431z m-235-167c-46 0-84 37-84 83s38 84 84 84 83-38 83-84-37-83-83-83z" horiz-adv-x="1000" />
<glyph glyph-name="glyph-322" unicode="&#xe942;" d="m792 288h-250v-250h-84v250h-250v83h250v250h84v-250h250v-83z" horiz-adv-x="1000" />
<glyph glyph-name="glyph-323" unicode="&#xe943;" d="m792 704h-584c-46 0-83-37-83-83v-583c0-47 37-84 83-84h584c46 0 83 37 83 84v583c0 46-37 83-83 83z m-84-416h-166v-167h-84v167h-166v83h166v167h84v-167h166v-83z" horiz-adv-x="1000" />
<glyph glyph-name="glyph-324" unicode="&#xe944;" d="m500 746c-230 0-417-187-417-417s187-417 417-417 417 187 417 417-187 417-417 417z m208-458h-166v-167h-84v167h-166v83h166v167h84v-167h166v-83z" horiz-adv-x="1000" />
<glyph glyph-name="glyph-325" unicode="&#xe945;" d="m542 538h-84v-167h-166v-83h166v-167h84v167h166v83h-166v167z m-42 208c-230 0-417-187-417-417s187-417 417-417 417 187 417 417-187 417-417 417z m0-750c-184 0-333 149-333 333s149 334 333 334 333-150 333-334-149-333-333-333z" horiz-adv-x="1000" />
<glyph glyph-name="glyph-326" unicode="&#xe946;" d="m856 612l-58 70c-11 13-29 22-48 22h-500c-19 0-37-9-48-22l-58-70c-12-15-19-33-19-54v-520c0-47 37-84 83-84h584c46 0 83 37 83 84v520c0 21-7 39-19 54z m-356-512l-229 229h146v84h166v-84h146l-229-229z m-286 521l34 42h500l39-42h-573z" horiz-adv-x="1000" />
<glyph glyph-name="glyph-327" unicode="&#xe947;" d="m917 704h-625c-29 0-52-14-67-36l-225-339 225-338c15-22 38-37 67-37h625c46 0 83 37 83 84v583c0 46-37 83-83 83z m-125-524l-59-59-150 149-149-149-59 59 149 149-149 150 59 59 149-150 150 150 59-59-150-150 150-149z" horiz-adv-x="1000" />
<glyph glyph-name="glyph-328" unicode="&#xe948;" d="m500 746c-230 0-417-187-417-417s187-417 417-417 417 187 417 417-187 417-417 417z m-333-417c0 184 149 334 333 334 77 0 148-27 204-71l-467-467c-44 57-70 127-70 204z m333-333c-77 0-148 26-204 70l467 467c44-56 70-127 70-204 0-184-149-333-333-333z" horiz-adv-x="1000" />
<glyph glyph-name="glyph-329" unicode="&#xe949;" d="m792 562l-59 59-233-233-233 233-59-59 233-233-233-232 59-59 233 232 233-232 59 59-233 232z" horiz-adv-x="1000" />
<glyph glyph-name="glyph-330" unicode="&#xe94a;" d="m667 788h-500c-46 0-84-38-84-84v-583h84v583h500v84z m125-167h-459c-46 0-83-37-83-83v-584c0-46 37-83 83-83h459c46 0 83 37 83 83v584c0 46-37 83-83 83z m0-667h-459v584h459v-584z" horiz-adv-x="1000" />
<glyph glyph-name="glyph-331" unicode="&#xe94b;" d="m402 511c9 21 15 44 15 68 0 92-75 167-167 167s-167-75-167-167 75-166 167-166c24 0 48 5 68 15l99-99-99-98c-20 9-44 15-68 15-92 0-167-75-167-167s75-167 167-167 167 75 167 167c0 25-6 48-15 69l98 98 292-292h125v42l-515 515z m-152-15c-46 0-83 37-83 83s37 84 83 84 83-38 83-84-37-83-83-83z m0-500c-46 0-83 37-83 83s37 84 83 84 83-38 83-84-37-83-83-83z m250 312c-11 0-21 10-21 21s10 21 21 21 21-9 21-21-9-21-21-21z m292 396l-250-250 83-83 292 292v41z" horiz-adv-x="1000" />
<glyph glyph-name="glyph-332" unicode="&#xe94c;" d="m792 746h-175c-17 48-63 83-117 83s-100-35-117-83h-175c-46 0-83-37-83-83v-667c0-46 37-84 83-84h584c46 0 83 38 83 84v667c0 46-37 83-83 83z m-292 0c23 0 42-19 42-42s-19-41-42-41-42 18-42 41 19 42 42 42z m292-750h-584v667h84v-125h416v125h84v-667z" horiz-adv-x="1000" />
<glyph glyph-name="glyph-333" unicode="&#xe94d;" d="m125 110v-156h156l461 461-156 157-461-462z m738 426c16 16 16 42 0 59l-98 97c-16 16-42 16-58 0l-77-76 157-157 76 77z" horiz-adv-x="1000" />
<glyph glyph-name="glyph-334" unicode="&#xe94e;" d="m916 496c0 30-15 56-39 71l-377 221-377-221c-24-15-40-41-40-71v-417c0-46 38-83 84-83h666c46 0 84 37 84 83l-1 417z m-416-208l-344 215 344 201 344-201-344-215z" horiz-adv-x="1000" />
<glyph glyph-name="glyph-335" unicode="&#xe94f;" d="m417 79h166v84h-166v-84z m-292 500v-83h750v83h-750z m125-291h500v83h-500v-83z" horiz-adv-x="1000" />
<glyph glyph-name="glyph-336" unicode="&#xe950;" d="m600 579l-17 84h-375v-709h84v292h233l17-83h291v416z" horiz-adv-x="1000" />
<glyph glyph-name="glyph-337" unicode="&#xe951;" d="m500 496v167l333-334-333-333v167h-333v333z" horiz-adv-x="1000" />
<glyph glyph-name="glyph-338" unicode="&#xe952;" d="m192 542c29 30 58 57 71 51 21-8 0-43-13-63-10-18-119-162-119-263 0-53 20-98 56-124 32-23 73-30 110-19 45 13 82 58 128 115 50 62 118 143 170 143 68 0 69-42 73-75-158-27-224-153-224-224s60-129 133-129c68 0 179 56 196 254h102v105h-103c-6 68-45 174-168 174-94 0-174-79-205-118-25-30-86-103-96-114-10-12-28-35-46-35-19 0-30 35-15 80 14 46 58 120 77 147 33 47 54 80 54 137 0 91-69 120-105 120-55 0-103-42-113-52-15-15-28-28-37-39l74-71z m387-486c-13 0-31 11-31 30 0 25 30 92 120 116-13-113-60-146-89-146z" horiz-adv-x="1000" />
</font>
</defs>
</svg>
